<svg xmlns="http://www.w3.org/2000/svg" width="48" height="48" viewBox="0 0 48 48"><rect width="48" height="48" rx="8" fill="#018dfc"/><path d="M16,2.884c4.272,0,4.779.016,6.467.093,4.336.2,6.361,2.255,6.559,6.559.077,1.687.092,2.193.092,6.465s-.016,4.779-.092,6.465c-.2,4.3-2.219,6.361-6.559,6.559-1.688.077-2.192.093-6.467.093s-4.779-.016-6.465-.093c-4.347-.2-6.361-2.265-6.559-6.56C2.9,20.779,2.883,20.273,2.883,16s.017-4.777.093-6.465c.2-4.3,2.219-6.361,6.559-6.559C11.223,2.9,11.728,2.884,16,2.884ZM16,0c-4.345,0-4.889.019-6.6.1C3.593.363.364,3.587.1,9.4.019,11.111,0,11.655,0,16s.019,4.891.1,6.6C.363,28.408,3.587,31.637,9.4,31.9c1.708.077,2.252.1,6.6.1s4.891-.019,6.6-.1C28.4,31.637,31.64,28.413,31.9,22.6c.079-1.707.1-2.252.1-6.6s-.019-4.889-.1-6.6C31.643,3.6,28.415.364,22.6.1,20.891.019,20.345,0,16,0Zm0,7.784A8.217,8.217,0,1,0,24.216,16,8.216,8.216,0,0,0,16,7.784Zm0,13.549A5.333,5.333,0,1,1,21.333,16,5.333,5.333,0,0,1,16,21.333ZM24.541,5.54A1.92,1.92,0,1,0,26.46,7.46,1.921,1.921,0,0,0,24.541,5.54Z" transform="translate(8 8)" fill="#fff" stroke="#fff" stroke-width="0.75"/></svg>