<svg xmlns="http://www.w3.org/2000/svg" width="48" height="48" viewBox="0 0 48 48">
  <g id="linkedin_icon" transform="translate(-501 -3406)">
    <rect id="Rectangle_312" data-name="Rectangle 312" width="48" height="48" rx="8" transform="translate(501 3406)" fill="#b3c3c4"/>
    <path id="Path_560" data-name="Path 560" d="M35.7,33.84V23.487c0-5.547-2.961-8.128-6.91-8.128a5.953,5.953,0,0,0-5.408,2.983V15.783h-6c.079,1.7,0,18.057,0,18.057h6V23.755a4.1,4.1,0,0,1,.2-1.463A3.284,3.284,0,0,1,26.654,20.1c2.173,0,3.042,1.655,3.042,4.082v9.661l6,0ZM11.051,13.318a3.13,3.13,0,1,0,.039-6.24,3.129,3.129,0,1,0-.076,6.24Zm3,20.522V15.783h-6V33.84h6Z" transform="translate(503.304 3409.966)" fill="#fff"/>
  </g>
</svg>
