<svg xmlns="http://www.w3.org/2000/svg" width="48" height="48" viewBox="0 0 48 48">
  <g id="aparat_icon" transform="translate(-669 -3406)">
    <rect id="Rectangle_314" data-name="Rectangle 314" width="48" height="48" rx="8" transform="translate(669 3406)" fill="#b3c3c4"/>
    <g id="Group_387" data-name="Group 387" transform="translate(-1576.909 1963.415)">
      <path id="Path_561" data-name="Path 561" d="M2307.851,1520.3c0-7.813,4.81-14.006,11.655-15.788a15.953,15.953,0,0,1,5.364-.467,15.666,15.666,0,0,1,13.749,11.173,15.28,15.28,0,0,1,.56,5.607,15.72,15.72,0,0,1-30.5,3.7A14.548,14.548,0,0,1,2307.851,1520.3Zm8.928-.394a4.434,4.434,0,1,0,4.475,4.523A4.443,4.443,0,0,0,2316.779,1519.9Zm13.522-.741a4.434,4.434,0,1,0-4.471-4.527A4.443,4.443,0,0,0,2330.3,1519.161Zm-2.278,11.745a4.434,4.434,0,1,0-4.48-4.413A4.439,4.439,0,0,0,2328.024,1530.905Zm-8.971-22.748a4.434,4.434,0,1,0,4.489,4.405A4.439,4.439,0,0,0,2319.053,1508.157Zm4.4,13.448a1.966,1.966,0,1,0-1.981-1.967A1.976,1.976,0,0,0,2323.451,1521.605Z" transform="translate(-53.37 -52.734)" fill="#fff"/>
      <path id="Path_562" data-name="Path 562" d="M2919.135,1563.357a17.375,17.375,0,0,0-6.525-11.289c.38.1.76.2,1.14.3.947.256,1.916.451,2.836.784a5.391,5.391,0,0,1,3.639,4.379,5.748,5.748,0,0,1-.216,2.618c-.283,1-.541,2.005-.811,3.008C2919.18,1563.225,2919.156,1563.291,2919.135,1563.357Z" transform="translate(-632.018 -98.741)" fill="#fff"/>
      <path id="Path_563" data-name="Path 563" d="M2727.355,2107.591a17.359,17.359,0,0,0,11.188-6.6c-.028.136-.042.22-.063.3s-.051.179-.075.269c-.312,1.139-.557,2.3-.952,3.412a5.629,5.629,0,0,1-6.725,3.523c-1.081-.28-2.16-.569-3.24-.855C2727.458,2107.634,2727.429,2107.619,2727.355,2107.591Z" transform="translate(-454.761 -623.963)" fill="#fff"/>
      <path id="Path_564" data-name="Path 564" d="M2369.989,1449.921a17.848,17.848,0,0,0-10.929,6.121c.075-.286.149-.573.227-.858.243-.884.426-1.79.746-2.645a5.423,5.423,0,0,1,4.265-3.574,6.252,6.252,0,0,1,2.974.229c.848.238,1.7.453,2.553.679C2369.881,1449.887,2369.935,1449.9,2369.989,1449.921Z" transform="translate(-102.368 0)" fill="#fff"/>
      <path id="Path_565" data-name="Path 565" d="M2259.367,1938.13c-1.28-.363-2.6-.627-3.832-1.112a5.528,5.528,0,0,1-3.265-6.565c.25-.941.506-1.881.76-2.821.012-.045.033-.087.061-.158a17.07,17.07,0,0,0,6.308,10.61Z" transform="translate(0 -457.938)" fill="#fff"/>
    </g>
  </g>
</svg>
