<svg xmlns="http://www.w3.org/2000/svg" width="1920.001" height="328.394" viewBox="0 0 1920.001 328.394"><path d="M-70.158,328.395H-1990V28.855c.061.042,7.042,4.859,20.609,12.256,7.941,4.33,16.534,8.674,25.541,12.91,11.264,5.3,23.209,10.441,35.5,15.288a748.093,748.093,0,0,0,100.316,31.28c20.936,5,42.644,9.3,64.519,12.778,24.061,3.83,48.924,6.767,73.9,8.728,39.157,3.074,82.789,5.424,129.684,6.982,45.687,1.519,94.479,2.289,145.021,2.289,102.966,0,211.86-3.206,314.912-9.271,21.893-1.288,43.257-2.869,63.5-4.7,19.3-1.745,38.228-3.774,56.255-6.032,33.289-4.17,64.359-9.181,94.986-15.32,25.552-5.122,51.272-11.149,78.63-18.425,24.419-6.495,47.94-13.384,70.686-20.046l.009,0c23.7-6.942,48.213-14.121,74.016-20.942,28.969-7.657,56.43-14.013,83.952-19.429,31.864-5.409,64.4-9.629,96.691-12.543C-427.02,1.567-393.545,0-361.781,0c38.731,0,74.7,2.33,106.916,6.925a486.118,486.118,0,0,1,48.16,9.236,332.055,332.055,0,0,1,42.91,13.6,218.022,218.022,0,0,1,36.371,18.353,159.614,159.614,0,0,1,15.331,11.08A132.511,132.511,0,0,1-98.879,71.607,114.508,114.508,0,0,1-87.945,85.4a105.072,105.072,0,0,1,8.495,15.223,104.174,104.174,0,0,1,5.894,16.7,112.279,112.279,0,0,1,3.132,18.228c.574,72.17.461,144.7.265,192.84Z" transform="translate(1990 0)" fill="#f8fbfe"/></svg>