<svg xmlns="http://www.w3.org/2000/svg" width="904.711" height="1249.623" viewBox="0 0 904.711 1249.623"><g transform="translate(-376.289 -306.536)"><path d="M1280,425.33c-7.175-30.467-20.376-54.026-43.393-62.358-51.553-18.664-78.369,29.577-130.723,44.167-74.966,20.9-77.862-45.534-174.459-46.993-39.508-.6-79.746,21.046-98.2,73.124-9.071,25.591-15.3,51.1-29.726,73.876-32.871,51.892-95.409,50.958-148.724,65.114-117.1,31.092-210.123,150.749-207.1,271.868,2.177,87.31,4.854,166.248,78.968,245.853,50.708,54.464,113.1,89.867,165.385,140.434,55.365,53.549,81.923,118.8,99.709,192.077,10.414,42.9,22.051,92.425,41.5,133.508,25.6.358,446.762,0,446.762,0Z" fill="#b7d7f0" opacity="0.1" style="isolation:isolate"/><path d="M624.694,449.036c76.685,32.948,139.673,95.549,175.244,170.908" fill="none" stroke="#deecf8" stroke-miterlimit="10" stroke-width="1.5"/><path d="M645.7,458.993a65.022,65.022,0,0,0-39.334-22.383c-3.732-.593-7.981-.717-10.806,1.792a4.24,4.24,0,0,0-1.526,2.634c-.168,1.666,1.058,3.13,2.307,4.241,6.623,5.893,15.783,7.939,24.59,8.95s15.269,2.938,24.769,4.766" fill="#deecf8"/><path d="M672.6,475.1a65.017,65.017,0,0,0-44.986-4.949c-3.662.935-7.611,2.508-9.21,5.932a4.231,4.231,0,0,0-.356,3.021c.507,1.6,2.212,2.455,3.8,2.979,8.418,2.785,17.639,1.03,26.124-1.534S663.154,477.2,672.6,475.1" fill="#deecf8"/><path d="M705.688,498.809a65.03,65.03,0,0,0-44.045-10.416c-3.746.483-7.855,1.564-9.865,4.766a4.231,4.231,0,0,0-.72,2.956c.3,1.643,1.892,2.7,3.4,3.421,8.015,3.79,17.379,3.174,26.115,1.668s15.485-1.474,25.115-2.4" fill="#deecf8"/><path d="M734.681,526.055a65.01,65.01,0,0,0-44.045-10.411c-3.746.478-7.855,1.556-9.865,4.759a4.236,4.236,0,0,0-.719,2.956c.3,1.646,1.892,2.707,3.4,3.421,8.015,3.79,17.379,3.177,26.115,1.668s15.484-1.475,25.114-2.393" fill="#deecf8"/><path d="M768.139,566.864a65.015,65.015,0,0,0-42.727-14.918c-3.773.083-7.973.736-10.307,3.712a4.237,4.237,0,0,0-1.022,2.871c.134,1.668,1.6,2.886,3.032,3.754,7.578,4.6,16.959,4.96,25.8,4.367s15.552.13,25.224.214" fill="#deecf8"/><path d="M789.512,598.836c-10.54-9.714-25.239-15.985-40.58-17.314-3.76-.325-8.009-.216-10.682,2.086a3.506,3.506,0,0,0-1.366,2.346c-.07,1.444,1.237,2.643,2.55,3.538,6.959,4.744,16.223,6.046,25.078,6.477s15.409,1.767,25,2.867" fill="#deecf8"/><path d="M684.443,483.174a70.427,70.427,0,0,0-8.934-46.559c-2.028-3.446-4.766-7.018-8.587-7.748a4.163,4.163,0,0,0-3.051.423c-1.4.918-1.713,2.855-1.738,4.588-.137,9.19,4.389,18.022,9.479,25.9s7.91,14.419,12.831,23.391" fill="#deecf8"/><path d="M709.481,502.33a70.458,70.458,0,0,0,2.441-47.346c-1.148-3.829-2.956-7.953-6.495-9.573a4.153,4.153,0,0,0-3.063-.319c-1.576.557-2.343,2.363-2.783,4.042-2.326,8.891-.039,18.546,3.023,27.417s4.24,15.892,6.877,25.779" fill="#deecf8"/><path d="M738.678,530.946a70.431,70.431,0,0,0,11.864-45.9c-.356-3.983-1.3-8.384-4.446-10.679a4.148,4.148,0,0,0-2.936-.924c-1.657.23-2.771,1.848-3.536,3.4-4.059,8.247-3.748,18.165-2.525,27.47s.974,16.418,1.579,26.633" fill="#deecf8"/><path d="M772.4,570.977a70.451,70.451,0,0,0,1.386-47.391c-1.232-3.8-3.132-7.883-6.7-9.425a4.133,4.133,0,0,0-3.068-.252c-1.565.593-2.29,2.416-2.69,4.1-2.127,8.938.375,18.543,3.631,27.344s4.591,15.794,7.449,25.62" fill="#deecf8"/><path d="M799.937,561.361a70.331,70.331,0,0,0-3.332,15.752c-1.055,9.325-3.009,16.169-4.882,26.23" fill="#deecf8"/><path d="M791.723,603.343a71.953,71.953,0,0,0,8.233-8.749l-.019-33.233" fill="#deecf8"/><path d="M626.074,1130.533c30.755,78.573,92.243,144.157,167.664,182.1" fill="none" stroke="#deecf8" stroke-miterlimit="10" stroke-width="1.5"/><path d="M635.345,1151.861a65.026,65.026,0,0,1-21.093-40.061c-.472-3.748-.455-8,2.147-10.746a4.221,4.221,0,0,1,2.681-1.438c1.67-.114,3.1,1.158,4.165,2.445,5.677,6.818,7.419,16.041,8.143,24.879s2.441,15.365,3.957,24.921" fill="#deecf8"/><path d="M650.57,1179.284a65.044,65.044,0,0,1-3.474-45.14c1.054-3.632,2.755-7.529,6.232-9.015a4.233,4.233,0,0,1,3.031-.256c1.579.56,2.382,2.288,2.855,3.895,2.508,8.508.45,17.67-2.39,26.071s-3.859,15.07-6.254,24.445" fill="#deecf8"/><path d="M673.189,1213.146a65.063,65.063,0,0,1-8.968-44.379c.6-3.728,1.816-7.808,5.085-9.708a4.243,4.243,0,0,1,2.979-.625c1.634.361,2.639,1.984,3.309,3.518,3.528,8.136,2.607,17.481.809,26.168s-1.98,15.426-3.214,25.026" fill="#deecf8"/><path d="M699.48,1243.027a65.04,65.04,0,0,1-8.966-44.377c.6-3.732,1.814-7.808,5.081-9.711a4.23,4.23,0,0,1,2.981-.622c1.634.362,2.64,1.988,3.309,3.516,3.528,8.138,2.607,17.481.809,26.168s-1.98,15.428-3.214,25.026" fill="#deecf8"/><path d="M739.188,1277.819a65.043,65.043,0,0,1-13.514-43.21c.211-3.773.995-7.953,4.048-10.182a4.231,4.231,0,0,1,2.9-.929c1.667.186,2.833,1.7,3.655,3.155,4.351,7.727,4.4,17.117,3.517,25.943s-.373,15.549-.606,25.223" fill="#deecf8"/><path d="M770.455,1300.238c-9.367-10.856-15.156-25.761-15.98-41.144-.2-3.77.045-8.014,2.436-10.611a3.506,3.506,0,0,1,2.387-1.292c1.446-.021,2.6,1.329,3.454,2.666,4.516,7.113,5.516,16.419,5.657,25.285s1.259,15.465,2.046,25.1" fill="#deecf8"/><path d="M658.251,1191.394a70.474,70.474,0,0,1-46.265-10.456c-3.378-2.142-6.861-5-7.462-8.842a4.131,4.131,0,0,1,.519-3.037c.966-1.37,2.911-1.62,4.646-1.589,9.193.164,17.873,4.983,25.589,10.329s14.164,8.378,22.973,13.6" fill="#deecf8"/><path d="M676.585,1217.053a70.478,70.478,0,0,1-47.421.89c-3.794-1.274-7.855-3.217-9.36-6.8a4.163,4.163,0,0,1-.219-3.073c.614-1.56,2.44-2.269,4.132-2.652,8.968-2.036,18.547.571,27.316,3.922s15.753,4.756,25.552,7.717" fill="#deecf8"/><path d="M704.239,1247.181a70.472,70.472,0,0,1-46.285,10.365c-3.967-.489-8.338-1.579-10.53-4.8a4.162,4.162,0,0,1-.828-2.969c.285-1.647,1.939-2.708,3.513-3.422,8.379-3.786,18.286-3.149,27.549-1.624s16.388,1.512,26.581,2.446" fill="#deecf8"/><path d="M743.16,1282.215a70.471,70.471,0,0,1-47.429-.167c-3.764-1.356-7.779-3.388-9.211-7.01a4.16,4.16,0,0,1-.151-3.078c.647-1.543,2.492-2.211,4.191-2.558,9.006-1.834,18.526.983,27.219,4.529s15.65,5.1,25.381,8.284" fill="#deecf8"/><path d="M774.89,1302.594a70.468,70.468,0,0,1-42.425,21.2c-3.971.481-8.474.475-11.378-2.115a4.174,4.174,0,0,1-1.52-2.681c-.121-1.671,1.233-3.093,2.592-4.173,7.217-5.694,16.987-7.463,26.345-8.211s16.265-2.478,26.386-4.024" fill="#deecf8"/><path d="M540.63,1347.668c90.753-25.371,177.18-15.45,253.417,31.995" fill="none" stroke="#deecf8" stroke-miterlimit="10" stroke-width="1.5"/><path d="M563.227,1342.241a65.011,65.011,0,0,0-44.656,7.257c-3.277,1.878-6.661,4.449-7.285,8.175a4.225,4.225,0,0,0,.468,3.005c.911,1.4,2.779,1.769,4.451,1.854,8.854.431,17.266-3.724,24.753-8.46s13.727-7.293,22.269-11.831" fill="#deecf8"/><path d="M594.268,1337.905a65,65,0,0,0-38.118,24.37c-2.262,3.024-4.349,6.725-3.447,10.394a4.253,4.253,0,0,0,1.621,2.575c1.393.922,3.26.522,4.825-.066,8.3-3.114,14.375-10.265,19.367-17.585s9.71-12.137,15.752-19.688" fill="#deecf8"/><path d="M634.892,1335.595a65.009,65.009,0,0,0-40.811,19.528c-2.615,2.724-5.137,6.144-4.69,9.895a4.237,4.237,0,0,0,1.293,2.754c1.271,1.086,3.171.917,4.8.524,8.613-2.077,15.518-8.43,21.37-15.084s11.122-10.861,18.04-17.617" fill="#deecf8"/><path d="M674.549,1338.611a65,65,0,0,0-40.807,19.528c-2.619,2.724-5.142,6.142-4.692,9.892a4.243,4.243,0,0,0,1.294,2.755c1.268,1.088,3.168.916,4.795.527,8.615-2.078,15.517-8.434,21.37-15.088s11.122-10.857,18.04-17.614" fill="#deecf8"/><path d="M726.192,1349.379a64.981,64.981,0,0,0-42.612,15.2c-2.883,2.438-5.748,5.579-5.692,9.354a4.228,4.228,0,0,0,1,2.873c1.151,1.213,3.059,1.241,4.717,1.019,8.784-1.173,16.307-6.777,22.819-12.79s12.187-9.643,19.766-15.653" fill="#deecf8"/><path d="M762.885,1360.853c-14.3-.945-29.673,3.4-42.444,11.985-3.132,2.1-6.367,4.856-7,8.323a3.5,3.5,0,0,0,.408,2.684c.847,1.167,2.619,1.281,4.2,1.154,8.392-.672,16.424-5.472,23.577-10.687s13.108-8.3,21.261-13.459" fill="#deecf8"/><path d="M608.55,1336.753a70.426,70.426,0,0,0-36.162-30.633c-3.741-1.411-8.116-2.47-11.548-.641a4.175,4.175,0,0,0-2.11,2.242c-.511,1.591.46,3.3,1.529,4.661,5.658,7.241,14.72,11.271,23.629,14.213s15.2,6.263,24.662,10.158" fill="#deecf8"/><path d="M640.054,1335.956a70.426,70.426,0,0,0-27.8-38.381c-3.293-2.261-7.288-4.334-11.059-3.377a4.145,4.145,0,0,0-2.583,1.674c-.878,1.424-.341,3.31.369,4.892,3.768,8.378,11.6,14.453,19.552,19.442s13.269,9.71,21.526,15.75" fill="#deecf8"/><path d="M680.73,1339.905a70.406,70.406,0,0,0-19.565-43.166c-2.774-2.874-6.275-5.7-10.158-5.519a4.135,4.135,0,0,0-2.866,1.122c-1.145,1.22-1,3.174-.62,4.862,2.016,8.963,8.479,16.489,15.27,22.963s11.058,12.169,17.939,19.738" fill="#deecf8"/><path d="M732.087,1349.907a70.426,70.426,0,0,0-28.653-37.751c-3.343-2.186-7.383-4.171-11.129-3.131a4.162,4.162,0,0,0-2.547,1.729c-.844,1.444-.268,3.318.478,4.883,3.953,8.293,11.926,14.2,19.98,19s13.483,9.413,21.871,15.267" fill="#deecf8"/><path d="M767.433,1362.973a70.428,70.428,0,0,0-8.589-46.607c-2-3.46-4.716-7.049-8.53-7.806a4.14,4.14,0,0,0-3.053.4c-1.4.907-1.733,2.841-1.772,4.574-.2,9.186,4.258,18.047,9.29,25.965s7.8,14.472,12.654,23.476" fill="#deecf8"/><path d="M1181.519,1065.277c25.222-39.75,59.064-73.7,98.36-100.047" fill="none" stroke="#deecf8" stroke-miterlimit="10" stroke-width="1.5"/><path d="M1194.689,1046.122a65,65,0,0,0-28.349,35.276c-1.178,3.586-1.975,7.765.057,10.955a4.219,4.219,0,0,0,2.357,1.924c1.616.431,3.258-.545,4.553-1.6,6.868-5.608,10.34-14.324,12.738-22.857s5.331-14.609,8.644-23.7" fill="#deecf8"/><path d="M1214.865,1022.124a65.021,65.021,0,0,0-12.031,43.626c.34,3.765,1.265,7.913,4.392,10.036a4.236,4.236,0,0,0,2.925.83c1.656-.248,2.774-1.79,3.545-3.276,4.086-7.868,3.817-17.251,2.636-26.035s-.9-15.523-1.467-25.181" fill="#deecf8"/><path d="M1243.528,993.222a65.039,65.039,0,0,0-17.278,41.829c-.124,3.773.29,8.008,3.135,10.5a4.239,4.239,0,0,0,2.8,1.183c1.671-.042,2.971-1.441,3.918-2.82,5.016-7.308,5.9-16.653,5.793-25.519s1-15.514,1.628-25.169" fill="#deecf8"/><path d="M1275.032,968.927a65.014,65.014,0,0,0-17.277,41.827c-.125,3.776.289,8.008,3.131,10.5a4.225,4.225,0,0,0,2.805,1.18c1.674-.042,2.977-1.444,3.921-2.817,5.016-7.31,5.9-16.653,5.792-25.519s1.006-15.516,1.628-25.169" fill="#deecf8"/><path d="M1224.716,1011.711a70.439,70.439,0,0,0-47.386,1.422c-3.724,1.456-7.686,3.591-9.011,7.25a4.135,4.135,0,0,0-.071,3.079c.683,1.525,2.548,2.142,4.255,2.445,9.051,1.6,18.488-1.474,27.08-5.246s15.494-5.514,25.133-8.95" fill="#deecf8"/><path d="M1247.607,990.038a70.447,70.447,0,0,0-46.356-9.932c-3.967.526-8.322,1.655-10.484,4.887a4.162,4.162,0,0,0-.8,2.975c.3,1.648,1.96,2.693,3.547,3.392,8.41,3.71,18.307,2.983,27.55,1.369s16.364-1.657,26.546-2.69" fill="#deecf8"/><path d="M1280.495,965.761a70.442,70.442,0,0,0-43.433-19.013c-3.987-.278-8.481-.047-11.248,2.7a4.155,4.155,0,0,0-1.376,2.756c-.035,1.671,1.385,3.027,2.793,4.028,7.5,5.316,17.339,6.583,26.719,6.857s16.366,1.646,26.545,2.677" fill="#deecf8"/><path d="M1279.353,929.845l-.545.083c-3.952.611-8.281,1.837-10.372,5.12a4.154,4.154,0,0,0-.734,2.988c.339,1.638,2.022,2.646,3.623,3.31a31.508,31.508,0,0,0,8.243,2.1" fill="#deecf8"/><path d="M793.77,1470.32c-32.331-13.92-73.441-68.057-80.353-78.425-18.108-27.177-31.621-35.994-60.389-49.207-18.72-8.6-32.316-41.749-19.912-67.709,22.624-47.341,118.838-47.02,151.358-77.379,4.773-4.456,11.138-11.809,12.591-11.794" fill="none" stroke="#a1dbff" stroke-miterlimit="10" stroke-width="2" stroke-dasharray="2.641"/><path d="M1280.4,734.916c-3.689,2.288-7.456,4.819-11.22,7.555-50.449,36.666-43.666,91.765-59.7,136.262-11.877,32.966-34.932,65.966-30.725,103.208,7.481,66.231,50.052,121.286,101.081,143" fill="none" stroke="#58a6e1" stroke-miterlimit="10" stroke-width="1.056" stroke-dasharray="2.641" opacity="0.4" style="isolation:isolate"/><path d="M492.644,693.453c-26.106,16.52-42.509,31.791-72.457,32.145-19.49.233-44.083,20.219-43.352,47.426,1.332,49.62,81.152,63.624,97.574,102.374C487.788,906.971,508,1043.354,660.762,977.772" fill="none" stroke="#58a6e1" stroke-miterlimit="10" stroke-width="1.056" stroke-dasharray="2.641" opacity="0.4" style="isolation:isolate"/><path d="M1211.473,1324.572a7.28,7.28,0,1,0,0-.008Z" fill="#ff7e58"/><path d="M1215.228,1321.414l2.79,2.76,3.814-5.042" fill="none" stroke="#fff" stroke-linecap="round" stroke-linejoin="round" stroke-width="1"/><path d="M524.5,767.113a13.167,13.167,0,1,0,17.289-6.917h0a13.164,13.164,0,0,0-17.286,6.912Z" fill="#ff7e58"/><path d="M530.483,770.92l5.032,5.18,7.2-9.136" fill="#ff7e58" stroke="#fff" stroke-linecap="round" stroke-miterlimit="10" stroke-width="1"/><path d="M1212.5,554.113a13.167,13.167,0,1,0,17.289-6.917h0a13.164,13.164,0,0,0-17.286,6.912Z" fill="#ff7e58"/><path d="M1218.483,557.92l5.032,5.18,7.2-9.136" fill="#ff7e58" stroke="#fff" stroke-linecap="round" stroke-miterlimit="10" stroke-width="1"/><path d="M1184.984,904.3a4.842,4.842,0,1,0,0-.005Z" fill="#ff7e58"/><path d="M729.16,1126.846a4.841,4.841,0,1,0,4.841-4.841,4.841,4.841,0,0,0-4.841,4.841Z" fill="#ff7e58"/><path d="M604.34,542.741a4.842,4.842,0,1,0,4.844-4.841A4.843,4.843,0,0,0,604.34,542.741Z" fill="#ff7e58"/><path d="M767.627,871.21a1.546,1.546,0,0,0,1.544-1.544V858.774a1.544,1.544,0,0,0-3.088,0v10.892a1.544,1.544,0,0,0,1.544,1.544Z" fill="#ff7e58"/><path d="M762.177,865.763h10.9a1.544,1.544,0,0,0,0-3.088h-10.9a1.544,1.544,0,1,0,0,3.088Z" fill="#ff7e58"/><path d="M508.5,1001.1a1.546,1.546,0,0,0,1.721,1.344l10.819-1.328a1.546,1.546,0,0,0-.377-3.068l-10.819,1.328A1.547,1.547,0,0,0,508.5,1001.1Z" fill="#ff7e58"/><path d="M513.239,995.024l1.328,10.818a1.544,1.544,0,1,0,3.065-.376L516.3,994.647a1.544,1.544,0,0,0-3.065.377Z" fill="#ff7e58"/><path d="M295.184,156.508a4.842,4.842,0,1,0,4.844-4.841A4.844,4.844,0,0,0,295.184,156.508Z" transform="translate(325.993 713.856)" fill="#ff7e58"/><rect width="184" height="358.242" transform="translate(886 838)" fill="#f2f8fd" style="isolation:isolate"/><rect width="184" height="359.758" transform="translate(886 1196.242)" fill="#f2f8fd" style="isolation:isolate"/><rect width="184" height="366.018" transform="translate(886 472)" fill="#f2f8fd" style="isolation:isolate"/><rect width="184" height="2.541" transform="translate(886 837.582)" fill="#9cc6e5" style="isolation:isolate"/><rect width="184" height="2.541" transform="translate(886 1195.41)" fill="#9cc6e5" style="isolation:isolate"/><path d="M981.766,1289.726v-.028l-.028.014-.025-.014v.028c-58.219,28.926-54.4,68.705-54.4,68.705V1553.9h108.852v-195.47S1039.985,1318.651,981.766,1289.726Z" fill="#58a6e1"/><path d="M1032.21,1361.661v21.24H930.71v-21.24a35.444,35.444,0,0,1,.41-7.49c.05-.33.1-.66.15-1a55.857,55.857,0,0,1,1.39-6.25c.09-.33.19-.66.28-1,.5-1.66,1.11-3.43,1.84-5.27.13-.33.27-.66.41-1a69.67,69.67,0,0,1,4.98-9.72c.22-.36.44-.72.67-1.08a83.162,83.162,0,0,1,10.8-13.5c.23-.24.47-.48.71-.71a107.821,107.821,0,0,1,16.16-13.2c.28-.19.58-.39.87-.58q5.49-3.63,12.05-7.11v-.03l.03.02.02-.02v.03q6.585,3.465,12.06,7.11c.29.2.58.39.86.59a107.966,107.966,0,0,1,15.34,12.36c.25.24.49.48.73.72a84.877,84.877,0,0,1,10.46,12.58c.23.34.45.68.67,1.01a71,71,0,0,1,6.13,11.53c.14.34.28.67.41,1,.73,1.84,1.33,3.61,1.83,5.27.1.34.2.67.29,1a59.269,59.269,0,0,1,1.39,6.25c.05.34.1.68.15,1A35.446,35.446,0,0,1,1032.21,1361.661Z" fill="#ffc500"/><path d="M945.37,1353.171c0,.33-.01.67-.02,1,0,.22,0,.45-.01.67v28.06h-1v-28.07c.01-.22.01-.44.01-.66.01-.33.02-.67.02-1a65.8,65.8,0,0,0-1.18-12.52c-.06-.33-.13-.67-.2-1a62.864,62.864,0,0,0-2.82-9.72c.22-.36.44-.72.67-1.08a66.518,66.518,0,0,1,3.17,10.8c.07.33.14.67.2,1A66.675,66.675,0,0,1,945.37,1353.171Z" fill="#ae8600"/><path d="M963.05,1349.131v33.77h-1v-33.77a81.041,81.041,0,0,0-.58-8.48c-.04-.32-.08-.66-.12-1-1.02-7.97-3.54-18.89-9.71-24.3.23-.24.47-.48.71-.71,6.49,5.7,9.04,16.9,10.05,25.01.04.34.08.67.11,1A79.813,79.813,0,0,1,963.05,1349.131Z" fill="#ae8600"/><path d="M1021.6,1328.121a66.166,66.166,0,0,0-3.52,11.53c-.07.33-.14.67-.2,1a65.871,65.871,0,0,0-1.18,12.52c0,.34.01.67.02,1,0,.22,0,.43.01.64v28.09h-1v-28.07c-.01-.22-.01-.44-.01-.66-.01-.33-.02-.66-.02-1a66.675,66.675,0,0,1,1.16-12.52c.06-.33.13-.67.2-1a66.672,66.672,0,0,1,3.87-12.54C1021.16,1327.451,1021.38,1327.791,1021.6,1328.121Z" fill="#ae8600"/><path d="M1010.47,1314.531c-6.93,5.04-9.67,16.72-10.75,25.12-.04.34-.08.67-.12,1a81.05,81.05,0,0,0-.58,8.48v33.77h-1v-33.77a81.363,81.363,0,0,1,.53-8.48c.04-.33.08-.66.12-1,1.06-8.52,3.83-20.46,11.07-25.84C1009.99,1314.051,1010.23,1314.291,1010.47,1314.531Z" fill="#ae8600"/><path d="M981.97,1343.391v39.51h-1v-39.51c0-.03,0-.26-.01-.66v-.17c-.01-.46-.03-1.11-.07-1.91-.01-.31-.02-.64-.04-1-.44-8.74-2.53-30.35-12.34-38.21.28-.19.58-.39.87-.58,8.27,6.87,11.11,22.69,12.08,32.99.21,2.24.34,4.23.41,5.8.02.36.03.69.04,1,.03.74.04,1.35.05,1.81v.04C981.97,1342.981,981.97,1343.281,981.97,1343.391Z" fill="#ae8600"/><path d="M994.4,1301.451c-9.8,7.87-11.89,29.47-12.33,38.2-.02.36-.03.69-.04,1-.04.74-.06,1.36-.07,1.81v.04c-.01.54-.01.85-.01.88v39.52h-1v-39.51c0-.09,0-.32.01-.66v-.17c.01-.47.02-1.12.05-1.91.01-.31.02-.64.04-1,.07-1.57.2-3.56.41-5.8.97-10.3,3.81-26.12,12.08-32.99C993.83,1301.061,994.12,1301.251,994.4,1301.451Z" fill="#ae8600"/><rect width="101.463" height="1" transform="translate(930.708 1366.346)" fill="#ae8600"/><path d="M1030.26,1346.921h-97.6c.09-.33.19-.66.28-1h97.03C1030.07,1346.261,1030.17,1346.591,1030.26,1346.921Z" fill="#ae8600"/><rect width="101.552" height="170.776" transform="translate(930.707 1383.125)" fill="#c9e0f1"/><rect width="84.522" height="36.603" transform="translate(940.59 1409.08)" fill="none" stroke="#58a6e1" stroke-miterlimit="10" stroke-width="3"/><rect width="84.522" height="36.603" transform="translate(940.59 1454.13)" fill="none" stroke="#58a6e1" stroke-miterlimit="10" stroke-width="3"/><rect width="84.522" height="36.603" transform="translate(940.59 1499.179)" fill="none" stroke="#58a6e1" stroke-miterlimit="10" stroke-width="3"/><rect width="109.687" height="6" rx="1.167" transform="translate(927.452 1219.075)" fill="#034170"/><rect width="95.32" height="6" rx="1.167" transform="translate(934.635 1228.017)" fill="#58a6e1"/><rect width="78.927" height="6" rx="1.167" transform="translate(942.869 1236.922)" fill="#034170"/><path d="M977.918,874.595h0a47.133,47.133,0,0,1,47.133,47.133v52.058a47.133,47.133,0,0,1-47.133,47.133h0a47.133,47.133,0,0,1-47.133-47.133V921.728A47.134,47.134,0,0,1,977.918,874.595Z" fill="none" stroke="#58a6e1" stroke-miterlimit="10" stroke-width="2"/><path d="M977.918,884.479h0a38.178,38.178,0,0,1,38.178,38.178v50.2a38.177,38.177,0,0,1-38.178,38.178h0a38.178,38.178,0,0,1-38.178-38.178v-50.2A38.178,38.178,0,0,1,977.918,884.479Z" fill="none" stroke="#58a6e1" stroke-miterlimit="10" stroke-width="2"/><rect width="59.993" height="108.363" rx="29.996" transform="translate(947.922 893.575)" fill="none" stroke="#58a6e1" stroke-miterlimit="10" stroke-width="2"/><path d="M977.918,904.836h0a21.038,21.038,0,0,1,21.039,21.039v43.763a21.039,21.039,0,0,1-21.039,21.039h0a21.04,21.04,0,0,1-21.039-21.039V925.875A21.039,21.039,0,0,1,977.918,904.836Z" fill="none" stroke="#58a6e1" stroke-miterlimit="10" stroke-width="2"/><circle cx="41.515" cy="41.515" r="41.515" transform="translate(936.403 1042.684)" fill="none" stroke="#58a6e1" stroke-miterlimit="10" stroke-width="2"/><circle cx="33.627" cy="33.627" r="33.627" transform="translate(944.291 1050.572)" fill="none" stroke="#58a6e1" stroke-miterlimit="10" stroke-width="2"/><circle cx="24.168" cy="24.168" r="24.168" transform="translate(953.751 1060.031)" fill="none" stroke="#58a6e1" stroke-miterlimit="10" stroke-width="2"/><circle cx="14.871" cy="14.871" r="14.871" transform="translate(963.047 1069.328)" fill="none" stroke="#58a6e1" stroke-miterlimit="10" stroke-width="2"/><path d="M1083.81,472.016H876.41c.8-41.245,23.73-74.4,52.07-75.119V381.885c14.26,0,27.16-8.431,36.51-22.073s15.12-32.474,15.12-53.276c0,41.615,23.11,75.349,51.63,75.349V396.9c14.43.37,27.46,9.141,36.87,23.1C1077.69,433.471,1083.42,451.774,1083.81,472.016Z" fill="#04518c"/><g transform="translate(0 0.02)"><path d="M1028.312,432.781h-19.976c-2.465-15.289-10.9-27.231-29.371-27.231-17.765,0-26.905,11.942-29.371,27.231H929.618c-8.334,26.6-28.846,30.445-28.846,30.445V472h156.386v-8.77S1036.646,459.381,1028.312,432.781Z" fill="#9cc6e5"/><ellipse cx="6.212" cy="16.741" rx="6.212" ry="16.741" transform="translate(972.601 425.333)" fill="#fff" style="isolation:isolate"/><ellipse cx="3.582" cy="9.653" rx="3.582" ry="9.653" transform="translate(1014.345 441.716)" fill="#fff"/><path d="M940.431,441.656c1.979,0,3.583,4.322,3.583,9.653s-1.6,9.653-3.582,9.653-3.583-4.321-3.583-9.653S938.449,441.656,940.431,441.656Z" fill="#fff" style="isolation:isolate"/></g><path d="M987.718,594.029H985.06c0-.107.022-.211.022-.318,0-4.854-2.8-8.784-6.263-8.784s-6.259,3.931-6.259,8.784c0,.107.018.211.022.318h-2.654a2.25,2.25,0,0,0-2.064,2.389v4.968a2.248,2.248,0,0,0,2.064,2.389h17.787a2.248,2.248,0,0,0,2.064-2.389v-4.965A2.25,2.25,0,0,0,987.718,594.029Z" fill="#9cc6e5"/><circle cx="67.329" cy="67.329" r="67.329" transform="translate(911.904 599.152)" fill="#9cc6e5"/><circle cx="50.795" cy="50.795" r="50.795" transform="translate(928.029 615.686)" fill="#fff" style="isolation:isolate"/><rect width="8.957" height="33.082" rx="1.252" transform="translate(951.634 660.333) rotate(-45)" fill="#034170"/><rect width="51.256" height="8.957" rx="1.252" transform="translate(968.687 677.385) rotate(-45)" fill="#034170"/><path d="M1070.184,1556h91.922V1203.265L1070,1196Z" fill="#9cc6e5" opacity="0.5"/><rect width="6.003" height="54.07" rx="1.168" transform="translate(1093.368 1224.99) rotate(-85.144)" fill="#034170"/><rect width="6.003" height="46.988" rx="1.168" transform="translate(1096.139 1234.198) rotate(-85.144)" fill="#58a6e1"/><rect width="6.003" height="38.907" rx="1.168" transform="translate(1099.428 1243.413) rotate(-85.144)" fill="#034170"/><path d="M1070,838l88.892,7v358L1070,1196Z" fill="#9cc6e5" opacity="0.5"/><path d="M1116.711,885.116h0c15.765,0,28.545,8.78,28.545,24.545V998.9c0,15.765-12.78,24.545-28.545,24.545h0c-15.765,0-28.545-8.78-28.545-24.545V909.661C1088.166,893.9,1100.946,885.116,1116.711,885.116Z" fill="none" stroke="#58a6e1" stroke-miterlimit="10" stroke-width="2"/><rect width="46.623" height="126.556" rx="23.311" transform="translate(1093.4 891)" fill="none" stroke="#58a6e1" stroke-miterlimit="10" stroke-width="2"/><path d="M1116.711,900.1h0a17.529,17.529,0,0,1,17.53,17.53v73.3a17.529,17.529,0,0,1-17.53,17.53h0a17.53,17.53,0,0,1-17.53-17.53v-73.3A17.53,17.53,0,0,1,1116.711,900.1Z" fill="none" stroke="#58a6e1" stroke-miterlimit="10" stroke-width="2"/><rect width="24.591" height="85.841" rx="12.295" transform="translate(1104.416 911.357)" fill="none" stroke="#58a6e1" stroke-miterlimit="10" stroke-width="2"/><ellipse cx="30.263" cy="41.515" rx="30.263" ry="41.515" transform="translate(1086.048 1049.205)" fill="none" stroke="#58a6e1" stroke-miterlimit="10" stroke-width="2"/><ellipse cx="24.513" cy="33.627" rx="24.513" ry="33.627" transform="translate(1091.798 1057.093)" fill="none" stroke="#58a6e1" stroke-miterlimit="10" stroke-width="2"/><ellipse cx="18.17" cy="24.926" rx="18.17" ry="24.926" transform="translate(1098.14 1065.794)" fill="none" stroke="#58a6e1" stroke-miterlimit="10" stroke-width="2"/><ellipse cx="11.027" cy="15.871" rx="11.027" ry="15.871" transform="translate(1105.284 1074.849)" fill="none" stroke="#58a6e1" stroke-miterlimit="10" stroke-width="2"/><path d="M1159.672,845.541,1070,840.13v-2.548l89.805,5.411Z" fill="#9cc6e5" style="isolation:isolate"/><path d="M1162.59,1203.531l-92.59-5.573v-2.548l92.723,5.573Z" fill="#9cc6e5" style="isolation:isolate"/><path d="M1070,472l86,7V845l-86-7Z" fill="#9cc6e5" opacity="0.5"/><path d="M1110.962,596.054l10.182,20.4,7.452,25.818v63.189l-2.336,22.057-4.47,1.636-19.26-1.453-8.683-.765V631.221s-.075-9.408.416-12.5a41.24,41.24,0,0,1,3.767-10.837c1.289-2.729,4.457-7.355,7.2-9.391A18.485,18.485,0,0,1,1110.962,596.054Z" fill="#ffc500"/><path d="M1103.336,600.255s28.429,2.814,17.094,128.819l14.727.861s.534-72.147-.284-96.177c-.153-4.505-.958-13.549-2.118-17.9a38.029,38.029,0,0,0-8.7-15.4c-2-2.142-6.915-5.533-10.615-4.973C1105.83,596.633,1103.336,600.255,1103.336,600.255Z" fill="#ae8600"/><path d="M1074.082,400.011a5.782,5.782,0,1,0-9.432,0h-10.186v5.63h15.531l14.005.67v-5.6Z" fill="#ffc500"/><path d="M1054.489,405.536H1070l14,.775v66.824L1070,472h-15.511Z" fill="#9cc6e5"/><path d="M1143.734,437.64,1156,438.658V479l-12.858-1.089Z" fill="#9cc6e5"/><path d="M1143.84,432.051l-.106,5.589,12.26,1.018.006-5.639-4.03-.357a11.737,11.737,0,0,0,.96-3.221c.251-3.183-1.057-4.213-2.43-4.32s-2.791.62-3.038,3.8a12.168,12.168,0,0,0,.452,3.42Z" fill="#ffc500"/><path d="M1074.5,472.365l76.249,6.194.107-10.083s-9.714-3.1-13.906-15.872h0l-9.589-.669c-1.223-7.65-7.224-13.832-14.482-14.34s-13.256,4.832-14.479,12.315l-9.789-.686c-4.077,12.73-14.11,13.91-14.11,13.91Z" fill="#9cc6e5"/><ellipse cx="7.661" cy="2.827" rx="7.661" ry="2.827" transform="translate(1109.746 463.828) rotate(-85.368)" fill="#fff" stroke="#fff" stroke-miterlimit="10" stroke-width="1"/><ellipse cx="4.417" cy="1.63" rx="4.417" ry="1.63" transform="translate(1128.753 466.363) rotate(-85.368)" fill="#fff" stroke="#fff" stroke-miterlimit="10" stroke-width="1"/><ellipse cx="4.417" cy="1.63" rx="4.417" ry="1.63" transform="translate(1093.391 463.475) rotate(-85.368)" fill="#fff" stroke="#fff" stroke-miterlimit="10" stroke-width="1"/><path d="M885.956,1196l-92.106,7.265V1556h91.922Z" fill="#9cc6e5" opacity="0.5"/><rect width="54.07" height="6.003" rx="1.168" transform="translate(808.204 1223.585) rotate(-4.856)" fill="#034170"/><rect width="46.988" height="6.003" rx="1.168" transform="translate(812.491 1232.194) rotate(-4.856)" fill="#58a6e1"/><rect width="38.907" height="6.003" rx="1.168" transform="translate(817.253 1240.726) rotate(-4.856)" fill="#034170"/><path d="M885.956,1196l-88.891,7V845l88.891-7Z" fill="#9cc6e5" opacity="0.5"/><path d="M867.79,909.661V998.9c0,15.765-12.78,24.545-28.545,24.545h0c-15.765,0-28.545-8.78-28.545-24.545V909.661c0-15.765,12.78-24.545,28.545-24.545h0C855.01,885.116,867.79,893.9,867.79,909.661Z" fill="none" stroke="#58a6e1" stroke-miterlimit="10" stroke-width="2"/><rect width="46.623" height="126.556" rx="23.311" transform="translate(815.933 891)" fill="none" stroke="#58a6e1" stroke-miterlimit="10" stroke-width="2"/><path d="M856.775,917.626v73.3a17.529,17.529,0,0,1-17.53,17.53h0a17.53,17.53,0,0,1-17.53-17.53v-73.3a17.53,17.53,0,0,1,17.53-17.53h0A17.529,17.529,0,0,1,856.775,917.626Z" fill="none" stroke="#58a6e1" stroke-miterlimit="10" stroke-width="2"/><rect width="24.591" height="85.841" rx="12.295" transform="translate(826.949 911.357)" fill="none" stroke="#58a6e1" stroke-miterlimit="10" stroke-width="2"/><ellipse cx="30.263" cy="41.515" rx="30.263" ry="41.515" transform="translate(809.382 1049.205)" fill="none" stroke="#58a6e1" stroke-miterlimit="10" stroke-width="2"/><ellipse cx="24.513" cy="33.627" rx="24.513" ry="33.627" transform="translate(815.132 1057.093)" fill="none" stroke="#58a6e1" stroke-miterlimit="10" stroke-width="2"/><ellipse cx="18.17" cy="24.926" rx="18.17" ry="24.926" transform="translate(821.477 1065.794)" fill="none" stroke="#58a6e1" stroke-miterlimit="10" stroke-width="2"/><ellipse cx="11.027" cy="15.871" rx="11.027" ry="15.871" transform="translate(828.618 1074.849)" fill="none" stroke="#58a6e1" stroke-miterlimit="10" stroke-width="2"/><path d="M796.152,842.993l89.8-5.411v2.548l-89.671,5.411Z" fill="#9cc6e5" style="isolation:isolate"/><path d="M793.233,1200.983l92.723-5.573v2.548l-92.59,5.573Z" fill="#9cc6e5" style="isolation:isolate"/><path d="M885.956,838l-86,7V479l86-7Z" fill="#9cc6e5" opacity="0.5"/><path d="M850.729,598.49c2.74,2.036,5.909,6.662,7.2,9.391a41.24,41.24,0,0,1,3.767,10.837c.491,3.095.416,12.5.416,12.5v95.715l-8.683.765-19.26,1.453-4.47-1.636-2.336-22.057V642.272l7.452-25.818,10.182-20.4A18.486,18.486,0,0,1,850.729,598.49Z" fill="#ffc500"/><path d="M842.516,595.481c-3.7-.56-8.614,2.831-10.615,4.973a38.04,38.04,0,0,0-8.7,15.4c-1.159,4.355-1.964,13.4-2.118,17.9-.817,24.03-.284,96.177-.284,96.177l14.727-.861C824.191,603.069,852.62,600.255,852.62,600.255S850.126,596.633,842.516,595.481Z" fill="#ae8600"/><path d="M871.956,400.709v5.6l14.005-.67h15.531v-5.63H891.306a5.782,5.782,0,1,0-9.432,0Z" fill="#ffc500"/><path d="M901.467,472H885.956l-14,1.138V406.311l14-.775h15.511Z" fill="#9cc6e5"/><path d="M812.814,477.914,799.956,479V438.658l12.266-1.018Z" fill="#9cc6e5"/><path d="M808.043,432.344a12.169,12.169,0,0,0,.451-3.42c-.247-3.183-1.665-3.91-3.038-3.8s-2.68,1.137-2.43,4.32a11.735,11.735,0,0,0,.961,3.221l-4.031.357.006,5.639,12.26-1.018-.106-5.589Z" fill="#ffc500"/><path d="M881.456,463.134s-10.033-1.18-14.11-13.91l-9.789.686c-1.223-7.483-7.221-12.823-14.479-12.315s-13.259,6.69-14.482,14.34l-9.589.669h0c-4.192,12.769-13.906,15.872-13.906,15.872l.106,10.083,76.25-6.194Z" fill="#9cc6e5"/><ellipse cx="2.827" cy="7.661" rx="2.827" ry="7.661" transform="translate(839.338 449.013) rotate(-4.632)" fill="#fff" stroke="#fff" stroke-miterlimit="10" stroke-width="1"/><ellipse cx="1.63" cy="4.417" rx="1.63" ry="4.417" transform="translate(823.241 457.821) rotate(-4.632)" fill="#fff" stroke="#fff" stroke-miterlimit="10" stroke-width="1"/><ellipse cx="1.63" cy="4.417" rx="1.63" ry="4.417" transform="translate(858.603 454.933) rotate(-4.632)" fill="#fff" stroke="#fff" stroke-miterlimit="10" stroke-width="1"/><g transform="translate(-35)"><circle cx="112.011" cy="112.011" r="112.011" transform="translate(627.604 1247.453)" fill="#bd2a00"/><ellipse cx="93.865" cy="98.229" rx="93.865" ry="98.229" transform="translate(636.525 1268.247)" fill="#ff3900"/><path d="M732.827,1323.317H746.4a2.582,2.582,0,0,1,2.583,2.583h0V1556H730.244V1325.9A2.583,2.583,0,0,1,732.827,1323.317Z" fill="#ffc500"/><path d="M702.231,1369.327l6.787-11.756a2.584,2.584,0,0,1,3.529-.946h0l34.907,20.154h0l-9.371,16.23h0l-34.907-20.153A2.583,2.583,0,0,1,702.231,1369.327Z" fill="#ffc500"/><path d="M745.2,1421.577,733.4,1407.024h0l52.82-42.863a2.582,2.582,0,0,1,3.633.378h0l8.555,10.541a2.584,2.584,0,0,1-.378,3.634h0L745.2,1421.577Z" fill="#ffc500"/></g><path d="M682.751,682.472h80.442a22.414,22.414,0,0,0-32.426-27.412,40.8,40.8,0,0,0-80.566.182,21.046,21.046,0,0,0-26.4,27.23h27.446" fill="#9cc6e5"/><path d="M1102.372,790.2h96.942a27.01,27.01,0,0,0-39.077-33.033,49.16,49.16,0,0,0-97.088.221,25.365,25.365,0,0,0-31.815,32.812h33.077" fill="#9cc6e5"/><path d="M724.9,977.821H829.548a29.157,29.157,0,0,0-42.183-35.658,53.069,53.069,0,0,0-104.808.237,27.381,27.381,0,0,0-34.342,35.421h35.7" fill="#deecf8"/><path d="M1113.223,723.49a56.405,56.405,0,0,1,13.1,3.4A39.617,39.617,0,0,1,1137.808,734a43.135,43.135,0,0,1,8.423,10.339,65.524,65.524,0,0,1,5.272,12.074.173.173,0,0,1-.323.122l0-.005a64.676,64.676,0,0,0-6.072-11.472,41.32,41.32,0,0,0-8.775-9.263A36.794,36.794,0,0,0,1125.183,730a52.659,52.659,0,0,0-12.406-2.229h-.011a2.154,2.154,0,1,1,.3-4.3C1113.114,723.476,1113.171,723.483,1113.223,723.49Z" fill="#d0e3ef"/><path d="M687.525,627.183a36.078,36.078,0,0,1,12.065,1.3,30.1,30.1,0,0,1,10.666,5.593,34.087,34.087,0,0,1,7.67,9.057,54.014,54.014,0,0,1,4.756,10.718.139.139,0,0,1-.089.177.144.144,0,0,1-.175-.083,53.373,53.373,0,0,0-5.4-10.221,32.616,32.616,0,0,0-7.909-8.147,27.793,27.793,0,0,0-10.188-4.484,32.976,32.976,0,0,0-11.078-.427h-.006a1.751,1.751,0,0,1-.43-3.476C687.444,627.189,687.487,627.186,687.525,627.183Z" fill="#d0e3ef"/><path d="M734.966,906.62a32.332,32.332,0,0,1,14.882,2.262,45.221,45.221,0,0,1,12.613,7.564,47.137,47.137,0,0,1,9.581,10.947,37.588,37.588,0,0,1,5.295,13.4.16.16,0,0,1-.314.066,36.8,36.8,0,0,0-6.012-12.771,45.42,45.42,0,0,0-9.889-9.941,42.637,42.637,0,0,0-12.3-6.355,28.839,28.839,0,0,0-13.311-1.205l-.019,0a2,2,0,0,1-.658-3.948C734.878,906.63,734.925,906.624,734.966,906.62Z" fill="#c3d4db"/><path d="M799.937,561.361" fill="#deecf8"/><rect width="601.495" height="2.541" rx="1.27" transform="translate(679.505 1553.459)" fill="#034170" style="isolation:isolate"/><rect width="14.11" height="2.541" rx="1.27" transform="translate(659.505 1553.459)" fill="#034170" style="isolation:isolate"/></g></svg>