<svg xmlns="http://www.w3.org/2000/svg" width="1097.531" height="1289.754" viewBox="0 0 1097.531 1289.754"><g transform="translate(0.942 -1950.706)"><path d="M37.748,315.174c16.3,84.512-35.512,87.777-36.65,196.674C.63,556.387,97.983,635.226,115.743,651.486c40.471,37.057,39.742,162.14,50.782,222.243,24.249,132.01,107.366,196.477,157.62,210.182,68.528,18.274,184.067,17.812,246.151-65.739,42.477-57.165,82.649-105.548,109.525-186.444,37.219-90.457,92.655-142.355,149.8-162.4,54.048-18.967,112.84-41.53,154.2-98.4,38.871-53.439,33.208-109.333,16.539-174.95-18.379-72.356,35.3-115.73,76.859-143.9,34.987-23.726,62.15-102.739,78.4-159.493,17.615-61.529,173.416-96.519,124.767-96.519s-979.757.3-1164.643,1.6C66.266-4.939,24.685,82.42,3.3,167.805-11.255,225.924,26.368,256.153,37.748,315.174Z" transform="translate(2.997 3240.46) rotate(-90)" fill="#b7d7f0" opacity="0.1"/><g transform="translate(-511.44 1712.6)"><g transform="translate(1113.871 -28.43) rotate(90)"><path d="M624.694,449.036c66.179,28.434,128.166,91.58,165.159,153.381" fill="none" stroke="#deecf8" stroke-miterlimit="10" stroke-width="1.5"/><path d="M645.7,458.993a65.022,65.022,0,0,0-39.334-22.383c-3.732-.593-7.981-.717-10.806,1.792a4.24,4.24,0,0,0-1.526,2.634c-.168,1.666,1.058,3.13,2.307,4.241,6.623,5.893,15.783,7.939,24.59,8.95s15.269,2.938,24.769,4.766" fill="#deecf8"/><path d="M672.6,475.1a65.017,65.017,0,0,0-44.986-4.949c-3.662.935-7.611,2.508-9.21,5.932a4.231,4.231,0,0,0-.356,3.021c.507,1.6,2.212,2.455,3.8,2.979,8.418,2.785,17.639,1.03,26.124-1.534S663.154,477.2,672.6,475.1" fill="#deecf8"/><path d="M705.688,498.809a65.03,65.03,0,0,0-44.045-10.416c-3.746.483-7.855,1.564-9.865,4.766a4.231,4.231,0,0,0-.72,2.956c.3,1.643,1.892,2.7,3.4,3.421,8.015,3.79,17.379,3.174,26.115,1.668s15.485-1.474,25.115-2.4" transform="translate(1 3)" fill="#deecf8"/><path d="M734.681,526.055a65.01,65.01,0,0,0-44.045-10.411c-3.746.478-7.855,1.556-9.865,4.759a4.236,4.236,0,0,0-.719,2.956c.3,1.646,1.892,2.707,3.4,3.421,8.015,3.79,17.379,3.177,26.115,1.668s15.484-1.475,25.114-2.393" transform="translate(1 4)" fill="#deecf8"/><path d="M768.139,566.864a65.015,65.015,0,0,0-42.727-14.918c-3.773.083-7.973.736-10.307,3.712a4.237,4.237,0,0,0-1.022,2.871c.134,1.668,1.6,2.886,3.032,3.754,7.578,4.6,16.959,4.96,25.8,4.367s15.552.13,25.224.214" transform="translate(-2 0)" fill="#deecf8"/><path d="M778.635,595.657c-6.09-5.838-18.965-13.2-29.7-14.135-3.76-.325-8.009-.216-10.682,2.086a3.506,3.506,0,0,0-1.366,2.346c-.07,1.444,1.237,2.643,2.55,3.538,4.781,3.259,11.49,5.281,17.863,6.165" transform="translate(11.343 6.774)" fill="#deecf8"/><path d="M773.315,587.614c-6.4-2.63-15.236-5.893-22.584-6.53-3.76-.325-9.807.222-12.48,2.523a3.506,3.506,0,0,0-1.366,2.346c-.07,1.444,1.237,2.643,2.55,3.538,6.959,4.744,16.331,7.032,25.186,7.463,3.064.149,5.143.173,8.177.527" transform="matrix(0.052, 0.999, -0.999, 0.052, 1346.052, -200.617)" fill="#deecf8"/><path d="M684.443,483.174a70.427,70.427,0,0,0-8.934-46.559c-2.028-3.446-4.766-7.018-8.587-7.748a4.163,4.163,0,0,0-3.051.423c-1.4.918-1.713,2.855-1.738,4.588-.137,9.19,4.389,18.022,9.479,25.9s7.91,14.419,12.831,23.391" transform="translate(-3 0)" fill="#deecf8"/><path d="M709.481,502.33a70.458,70.458,0,0,0,2.441-47.346c-1.148-3.829-2.956-7.953-6.495-9.573a4.153,4.153,0,0,0-3.063-.319c-1.576.557-2.343,2.363-2.783,4.042-2.326,8.891-.039,18.546,3.023,27.417s4.24,15.892,6.877,25.779" transform="translate(-4 0)" fill="#deecf8"/><path d="M738.678,530.946a70.431,70.431,0,0,0,11.864-45.9c-.356-3.983-1.3-8.384-4.446-10.679a4.148,4.148,0,0,0-2.936-.924c-1.657.23-2.771,1.848-3.536,3.4-4.059,8.247-3.748,18.165-2.525,27.47s.974,16.418,1.579,26.633" transform="translate(-3 1)" fill="#deecf8"/><path d="M772.4,570.977a70.451,70.451,0,0,0,1.386-47.391c-1.232-3.8-3.132-7.883-6.7-9.425a4.133,4.133,0,0,0-3.068-.252c-1.565.593-2.29,2.416-2.69,4.1-2.127,8.938.375,18.543,3.631,27.344s4.591,15.794,7.449,25.62" transform="translate(-4 0)" fill="#deecf8"/></g><g transform="translate(2173.44 837.727) rotate(124)"><path d="M624.694,449.036c10.724,4.607,25.236,15.581,36.281,20.529,22.713,10.175,41.5,15.389,60.036,32,18.951,16.981,25.468,42.1,39.243,64.729,11.334,18.616,30.552,34.307,39.684,53.654" fill="none" stroke="#deecf8" stroke-miterlimit="10" stroke-width="1.5"/><path d="M644.667,455.819c-9.808-10.265-23.486-17.1-38.548-19.259-3.657-.51-7.822-.617-10.59,1.542a3.581,3.581,0,0,0-1.5,2.266c-.165,1.433,1.037,2.693,2.261,3.649,6.491,5.07,15.468,6.831,24.1,7.7s14.964,2.528,24.274,4.1" transform="translate(-3.333 2.348)" fill="#deecf8"/><path d="M672.6,475.1a65.017,65.017,0,0,0-44.986-4.949c-3.662.935-7.611,2.508-9.21,5.932a4.231,4.231,0,0,0-.356,3.021c.507,1.6,2.212,2.455,3.8,2.979,8.418,2.785,17.639,1.03,26.124-1.534S663.154,477.2,672.6,475.1" transform="translate(3.336 1.369)" fill="#deecf8"/><path d="M705.688,498.809a65.03,65.03,0,0,0-44.045-10.416c-3.746.483-7.855,1.564-9.865,4.766a4.231,4.231,0,0,0-.72,2.956c.3,1.643,1.892,2.7,3.4,3.421,8.015,3.79,17.379,3.174,26.115,1.668s15.485-1.474,25.115-2.4" transform="matrix(0.998, -0.07, 0.07, 0.998, -25.965, 46.27)" fill="#deecf8"/><path d="M734.681,526.055a65.01,65.01,0,0,0-44.045-10.411c-3.746.478-7.855,1.556-9.865,4.759a4.236,4.236,0,0,0-.719,2.956c.3,1.646,1.892,2.707,3.4,3.421,8.015,3.79,17.379,3.177,26.115,1.668s15.484-1.475,25.114-2.393" transform="matrix(0.978, 0.208, -0.208, 0.978, 134.055, -135.15)" fill="#deecf8"/><path d="M768.139,566.864a65.015,65.015,0,0,0-42.727-14.918c-3.773.083-7.973.736-10.307,3.712a4.237,4.237,0,0,0-1.022,2.871c.134,1.668,1.6,2.886,3.032,3.754,7.578,4.6,16.959,4.96,25.8,4.367s15.552.13,25.224.214" transform="translate(91.621 -112.904) rotate(9)" fill="#deecf8"/><path d="M789.512,598.836c-10.54-9.714-25.239-15.985-40.58-17.314-3.76-.325-8.009-.216-10.682,2.086a3.506,3.506,0,0,0-1.366,2.346c-.07,1.444,1.237,2.643,2.55,3.538,6.959,4.744,16.223,6.046,25.078,6.477s15.409,1.767,25,2.867" transform="translate(-2.487 1.678)" fill="#deecf8"/><path d="M684.443,483.174a70.427,70.427,0,0,0-8.934-46.559c-2.028-3.446-4.766-7.018-8.587-7.748a4.163,4.163,0,0,0-3.051.423c-1.4.918-1.713,2.855-1.738,4.588-.137,9.19,4.389,18.022,9.479,25.9s7.91,14.419,12.831,23.391" transform="translate(-82.953 135.307) rotate(-11)" fill="#deecf8"/><path d="M709.481,502.33a70.458,70.458,0,0,0,2.441-47.346c-1.148-3.829-2.956-7.953-6.495-9.573a4.153,4.153,0,0,0-3.063-.319c-1.576.557-2.343,2.363-2.783,4.042-2.326,8.891-.039,18.546,3.023,27.417s4.24,15.892,6.877,25.779" transform="translate(-75.46 141.052) rotate(-11)" fill="#deecf8"/><path d="M738.678,530.946a70.431,70.431,0,0,0,11.864-45.9c-.356-3.983-1.3-8.384-4.446-10.679a4.148,4.148,0,0,0-2.936-.924c-1.657.23-2.771,1.848-3.536,3.4-4.059,8.247-3.748,18.165-2.525,27.47s.974,16.418,1.579,26.633" transform="matrix(0.998, -0.07, 0.07, 0.998, -34.627, 49.216)" fill="#deecf8"/><path d="M772.4,570.977a70.451,70.451,0,0,0,1.386-47.391c-1.232-3.8-3.132-7.883-6.7-9.425a4.133,4.133,0,0,0-3.068-.252c-1.565.593-2.29,2.416-2.69,4.1-2.127,8.938.375,18.543,3.631,27.344s4.591,15.794,7.449,25.62" transform="translate(-4.955 6.961)" fill="#deecf8"/></g><g transform="translate(2354.44 674.727) rotate(124)"><path d="M699.435,486.595a106.908,106.908,0,0,1,21.576,14.967c18.951,16.981,25.468,42.1,39.243,64.729,11.334,18.616,30.552,34.307,39.684,53.654" fill="none" stroke="#deecf8" stroke-miterlimit="10" stroke-width="1.5"/><path d="M705.688,498.809a65.6,65.6,0,0,0-13.511-6.877,46.316,46.316,0,0,0-1.93,8.058c4.607-.405,9.47-.61,15.441-1.181" transform="matrix(0.998, -0.07, 0.07, 0.998, -25.965, 46.27)" fill="#deecf8"/><path d="M729.506,524.687a60.491,60.491,0,0,0-39.875-9.1c-3.391.418-7.111,1.361-8.931,4.162a3.608,3.608,0,0,0-.651,2.585c.276,1.439,1.713,2.367,3.078,2.992,7.256,3.314,15.734,2.778,23.643,1.459s14.018-1.29,22.736-2.093" transform="matrix(0.978, 0.208, -0.208, 0.978, 139.136, -130.469)" fill="#deecf8"/><path d="M768.139,566.864a65.015,65.015,0,0,0-42.727-14.918c-3.773.083-7.973.736-10.307,3.712a4.237,4.237,0,0,0-1.022,2.871c.134,1.668,1.6,2.886,3.032,3.754,7.578,4.6,16.959,4.96,25.8,4.367s15.552.13,25.224.214" transform="translate(91.621 -112.904) rotate(9)" fill="#deecf8"/><path d="M789.512,598.836c-10.54-9.714-25.239-15.985-40.58-17.314-3.76-.325-8.009-.216-10.682,2.086a3.506,3.506,0,0,0-1.366,2.346c-.07,1.444,1.237,2.643,2.55,3.538,6.959,4.744,16.223,6.046,25.078,6.477s15.409,1.767,25,2.867" transform="translate(-2.487 1.678)" fill="#deecf8"/><path d="M709.481,502.33a70.672,70.672,0,0,0,3.284-44.29c-.917,1.075-6.337,8.8-10.921,16.239.185.579.469,1.429.76,2.272,3.062,8.871,4.24,15.892,6.877,25.779" transform="translate(-75.46 141.052) rotate(-11)" fill="#deecf8"/><path d="M738.678,530.946a70.431,70.431,0,0,0,11.864-45.9c-.356-3.983-1.3-8.384-4.446-10.679a4.148,4.148,0,0,0-2.936-.924c-1.657.23-2.771,1.848-3.536,3.4-4.059,8.247-3.748,18.165-2.525,27.47s.974,16.418,1.579,26.633" transform="matrix(0.998, -0.07, 0.07, 0.998, -34.627, 49.216)" fill="#deecf8"/><path d="M772.4,570.977a70.451,70.451,0,0,0,1.386-47.391c-1.232-3.8-3.132-7.883-6.7-9.425a4.133,4.133,0,0,0-3.068-.252c-1.565.593-2.29,2.416-2.69,4.1-2.127,8.938.375,18.543,3.631,27.344s4.591,15.794,7.449,25.62" transform="translate(-4.955 6.961)" fill="#deecf8"/></g><g transform="translate(1951.774 464.875) rotate(88)"><path d="M626.074,1130.533c30.755,78.573,92.243,144.157,167.664,182.1" fill="none" stroke="#deecf8" stroke-miterlimit="10" stroke-width="1.5"/><path d="M635.345,1151.861a65.026,65.026,0,0,1-21.093-40.061c-.472-3.748-.455-8,2.147-10.746a4.221,4.221,0,0,1,2.681-1.438c1.67-.114,3.1,1.158,4.165,2.445,5.677,6.818,7.419,16.041,8.143,24.879s2.441,15.365,3.957,24.921" fill="#deecf8"/><path d="M650.57,1179.284a65.044,65.044,0,0,1-3.474-45.14c1.054-3.632,2.755-7.529,6.232-9.015a4.233,4.233,0,0,1,3.031-.256c1.579.56,2.382,2.288,2.855,3.895,2.508,8.508.45,17.67-2.39,26.071s-3.859,15.07-6.254,24.445" fill="#deecf8"/><path d="M673.189,1213.146a65.063,65.063,0,0,1-8.968-44.379c.6-3.728,1.816-7.808,5.085-9.708a4.243,4.243,0,0,1,2.979-.625c1.634.361,2.639,1.984,3.309,3.518,3.528,8.136,2.607,17.481.809,26.168s-1.98,15.426-3.214,25.026" fill="#deecf8"/><path d="M699.48,1243.027a65.04,65.04,0,0,1-8.966-44.377c.6-3.732,1.814-7.808,5.081-9.711a4.23,4.23,0,0,1,2.981-.622c1.634.362,2.64,1.988,3.309,3.516,3.528,8.138,2.607,17.481.809,26.168s-1.98,15.428-3.214,25.026" fill="#deecf8"/><path d="M739.188,1277.819a65.043,65.043,0,0,1-13.514-43.21c.211-3.773.995-7.953,4.048-10.182a4.231,4.231,0,0,1,2.9-.929c1.667.186,2.833,1.7,3.655,3.155,4.351,7.727,4.4,17.117,3.517,25.943s-.373,15.549-.606,25.223" fill="#deecf8"/><path d="M658.251,1191.394a70.474,70.474,0,0,1-46.265-10.456c-3.378-2.142-6.861-5-7.462-8.842a4.131,4.131,0,0,1,.519-3.037c.966-1.37,2.911-1.62,4.646-1.589,9.193.164,17.873,4.983,25.589,10.329s14.164,8.378,22.973,13.6" fill="#deecf8"/><path d="M676.585,1217.053a70.478,70.478,0,0,1-47.421.89c-3.794-1.274-7.855-3.217-9.36-6.8a4.163,4.163,0,0,1-.219-3.073c.614-1.56,2.44-2.269,4.132-2.652,8.968-2.036,18.547.571,27.316,3.922s15.753,4.756,25.552,7.717" fill="#deecf8"/><path d="M704.239,1247.181a70.472,70.472,0,0,1-46.285,10.365c-3.967-.489-8.338-1.579-10.53-4.8a4.162,4.162,0,0,1-.828-2.969c.285-1.647,1.939-2.708,3.513-3.422,8.379-3.786,18.286-3.149,27.549-1.624s16.388,1.512,26.581,2.446" fill="#deecf8"/><path d="M743.16,1282.215a70.471,70.471,0,0,1-47.429-.167c-3.764-1.356-7.779-3.388-9.211-7.01a4.16,4.16,0,0,1-.151-3.078c.647-1.543,2.492-2.211,4.191-2.558,9.006-1.834,18.526.983,27.219,4.529s15.65,5.1,25.381,8.284" fill="#deecf8"/><path d="M774.89,1302.594a70.468,70.468,0,0,1-42.425,21.2c-3.971.481-8.474.475-11.378-2.115a4.174,4.174,0,0,1-1.52-2.681c-.121-1.671,1.233-3.093,2.592-4.173,7.217-5.694,16.987-7.463,26.345-8.211s16.265-2.478,26.386-4.024" fill="#deecf8"/></g><g transform="translate(1120.556 1427.04) rotate(150)"><path d="M0,13.577c72.6-20.3,142.673-18.149,207.006,7.981" transform="translate(29.44 42.879)" fill="none" stroke="#deecf8" stroke-miterlimit="10" stroke-width="1.5"/><g transform="translate(0 0)"><path d="M52.037,1.223A65.011,65.011,0,0,0,7.381,8.481C4.1,10.358.72,12.93.1,16.655A4.225,4.225,0,0,0,.564,19.66c.911,1.4,2.779,1.769,4.451,1.854,8.854.431,17.266-3.724,24.753-8.46S43.495,5.762,52.037,1.223" transform="translate(0 49.806)" fill="#deecf8"/><path d="M41.78,0A65,65,0,0,0,3.662,24.37C1.4,27.394-.687,31.095.215,34.764a4.253,4.253,0,0,0,1.621,2.575c1.393.922,3.26.522,4.825-.066,8.3-3.114,14.375-10.265,19.367-17.585S35.738,7.551,41.78,0" transform="translate(42.298 44.962)" fill="#deecf8"/><path d="M45.553,0A65.009,65.009,0,0,0,4.742,19.528C2.127,22.252-.4,25.672.052,29.423a4.237,4.237,0,0,0,1.293,2.754c1.271,1.086,3.171.917,4.8.524,8.613-2.077,15.518-8.43,21.37-15.084S38.635,6.756,45.553,0" transform="translate(80.015 43.152)" fill="#deecf8"/><path d="M45.551,0A65,65,0,0,0,4.744,19.528C2.125,22.252-.4,25.67.052,29.42a4.243,4.243,0,0,0,1.294,2.755c1.268,1.088,3.168.916,4.795.527,8.615-2.078,15.517-8.434,21.37-15.088S38.633,6.757,45.551,0" transform="translate(120.174 45.302)" fill="#deecf8"/><path d="M48.306.005A64.981,64.981,0,0,0,5.694,15.2C2.811,17.641-.054,20.781,0,24.557a4.228,4.228,0,0,0,1,2.873c1.151,1.213,3.059,1.241,4.717,1.019,8.784-1.173,16.307-6.777,22.819-12.79S40.727,6.015,48.306.005" transform="translate(167.196 57.296)" fill="#deecf8"/><path d="M40.367.228A70.876,70.876,0,0,0,7.11,12.112c-3.132,2.1-6.367,4.856-7,8.323a3.5,3.5,0,0,0,.408,2.684c.847,1.167,2.619,1.281,4.2,1.154C13.108,23.6,21.14,18.8,28.293,13.586c5.58-4.069,10.43-6.839,16.422-10.467" transform="translate(202.141 69.514)" fill="#deecf8"/><path d="M49.96,32.247A70.426,70.426,0,0,0,13.8,1.614C10.057.2,5.682-.856,2.25.973A4.175,4.175,0,0,0,.14,3.215c-.511,1.591.46,3.3,1.529,4.661C7.327,15.117,16.389,19.147,25.3,22.089S40.5,28.352,49.96,32.247" transform="translate(45.668 12.295)" fill="#deecf8"/><path d="M41.9,42A70.426,70.426,0,0,0,14.1,3.616C10.805,1.355,6.81-.718,3.039.239A4.145,4.145,0,0,0,.456,1.913C-.422,3.337.115,5.223.825,6.805c3.768,8.378,11.6,14.453,19.552,19.442S33.646,35.957,41.9,42" transform="translate(84.363 1.247)" fill="#deecf8"/><path d="M33.484,48.694A70.406,70.406,0,0,0,13.919,5.528C11.145,2.654,7.644-.176,3.761.009A4.135,4.135,0,0,0,.9,1.131C-.25,2.351-.1,4.3.275,5.993c2.016,8.963,8.479,16.489,15.27,22.963S26.6,41.125,33.484,48.694" transform="translate(136.189 -2.232)" fill="#deecf8"/><path d="M42.747,41.167A70.426,70.426,0,0,0,14.094,3.416C10.751,1.23,6.711-.755,2.965.285A4.162,4.162,0,0,0,.418,2.014C-.426,3.458.15,5.332.9,6.9c3.953,8.293,11.926,14.2,19.98,19s13.483,9.413,21.871,15.267" transform="translate(178.15 17.529)" fill="#deecf8"/></g></g><g transform="translate(2287.876 2272.288) rotate(-171)"><path d="M1188.631,1053.816c13.09-20.63,33.763-13.327,51.181-30.707,15.9-15.865,21.165-45.208,40.067-57.88" fill="none" stroke="#deecf8" stroke-miterlimit="10" stroke-width="1.5"/><path d="M1194.689,1046.122a65,65,0,0,0-28.349,35.276c-1.178,3.586-1.975,7.765.057,10.955a4.219,4.219,0,0,0,2.357,1.924c1.616.431,3.258-.545,4.553-1.6,6.868-5.608,10.34-14.324,12.738-22.857s5.331-14.609,8.644-23.7" fill="#deecf8"/><path d="M1214.865,1022.124a65.021,65.021,0,0,0-12.031,43.626c.34,3.765,1.265,7.913,4.392,10.036a4.236,4.236,0,0,0,2.925.83c1.656-.248,2.774-1.79,3.545-3.276,4.086-7.868,3.817-17.251,2.636-26.035s-.9-15.523-1.467-25.181" transform="translate(3.583 12.496)" fill="#deecf8"/><path d="M1243.528,993.222a65.039,65.039,0,0,0-17.278,41.829c-.124,3.773.29,8.008,3.135,10.5a4.239,4.239,0,0,0,2.8,1.183c1.671-.042,2.971-1.441,3.918-2.82,5.016-7.308,5.9-16.653,5.793-25.519s1-15.514,1.628-25.169" transform="translate(2.905 21.013)" fill="#deecf8"/><path d="M1275.032,968.927a65.014,65.014,0,0,0-17.277,41.827c-.125,3.776.289,8.008,3.131,10.5a4.225,4.225,0,0,0,2.805,1.18c1.674-.042,2.977-1.444,3.921-2.817,5.016-7.31,5.9-16.653,5.792-25.519s1.006-15.516,1.628-25.169" transform="translate(-275.711 538.51) rotate(-21)" fill="#deecf8"/><path d="M1227.127,1011.069a93.082,93.082,0,0,0-49.4,1.155c-3.882,1.183-8.013,2.918-9.394,5.891a2.681,2.681,0,0,0-.074,2.5c.712,1.239,2.656,1.741,4.436,1.987,9.436,1.3,19.274-1.2,28.231-4.263s16.152-4.481,26.2-7.273" transform="matrix(0.985, 0.174, -0.174, 0.985, 190.822, -174.646)" fill="#deecf8"/><path d="M1241.86,988.591a65.688,65.688,0,0,0-41.736-8.569c-3.572.454-7.493,1.428-9.439,4.216a3.481,3.481,0,0,0-.718,2.567c.274,1.422,1.765,2.323,3.193,2.926,7.572,3.2,16.482,2.574,24.8,1.181s14.733-1.43,23.9-2.321" transform="matrix(0.921, -0.391, 0.391, 0.921, -274.751, 578.006)" fill="#deecf8"/><path d="M1280.495,965.761a70.442,70.442,0,0,0-43.433-19.013c-3.987-.278-8.481-.047-11.248,2.7a4.155,4.155,0,0,0-1.376,2.756c-.035,1.671,1.385,3.027,2.793,4.028,7.5,5.316,17.339,6.583,26.719,6.857s16.366,1.646,26.545,2.677" transform="translate(-326.21 785.949) rotate(-30)" fill="#deecf8"/></g></g><g transform="translate(-245.035 288.089)"><path d="M-.995,464.774c39.495-4.7,57.925-52.109,86.422-206.4s106.37-20.434,134.744-47.889c84.2-81.469,55.444-110.683,108.89-112.319,92.841-3.306,74,96.277,112.449,129.054,53.247,45.387,141.42,124.428,259.3,116.947S866.025,284.5,855.7,212.346c-15.307-55.663-116.844-15.828-91-83.352,17.33-43.849-21.517-104-128.729-49.252" transform="translate(300.107 2079.205)" fill="none" stroke="#1a8ae0" stroke-linecap="round" stroke-miterlimit="10" stroke-width="1.5" stroke-dasharray="3 4" style="isolation:isolate"/><path d="M1402.626,916.245c37.279-8.026,6.188-105.569-55.333-80.087-58.973,24.754-18.93-138.7-57.517-157.262-47.688-15.653-75.339,17.025-91.372,61.521-11.877,32.966-34.932,65.966-30.725,103.208a186.2,186.2,0,0,0,17.416,60.1" transform="matrix(-1, 0.017, -0.017, -1, 2014.093, 2852.268)" fill="none" stroke="#58a6e1" stroke-miterlimit="10" stroke-width="1.056" stroke-dasharray="2.641" opacity="0.4" style="isolation:isolate"/></g><g transform="translate(-658.69 869.356)"><g transform="translate(324 1992)"><path d="M432.907,437.035c-11.123,0-19.673,9.785-19.673,21.852s19.673,40.921,19.673,40.921,19.519-28.844,19.519-40.921S444.021,437.035,432.907,437.035Zm0,30.887c-5.834,0-10.562-5.134-10.562-11.468s4.728-11.468,10.562-11.468,10.561,5.134,10.561,11.468S438.74,467.922,432.907,467.922Z" transform="translate(591.196 -912.121)" fill="#ffc500"/><path d="M123.057,443.4c-11.131,0-19.687,9.792-19.687,21.868s19.687,40.951,19.687,40.951,19.533-28.865,19.533-40.951S134.18,443.4,123.057,443.4Zm0,30.909c-5.838,0-10.57-5.138-10.57-11.477s4.732-11.476,10.57-11.476,10.569,5.137,10.569,11.476S128.895,474.306,123.057,474.306Z" transform="translate(264.02 -535.153)" fill="#ff440e"/></g></g><g transform="translate(4 -25)"><path d="M592.709,2609.63c54.066,25.993,100.854-6.238,161.159-7.278s137.833,31.385,185.661,27.226" transform="translate(-119 -28)" fill="none" stroke="#deecf8" stroke-linecap="round" stroke-width="1.5"/><path d="M592.709,2609.63c54.066,25.993,100.854-6.238,161.159-7.278s116.45,50.947,164.279,46.788" transform="translate(-84 15)" fill="none" stroke="#deecf8" stroke-linecap="round" stroke-width="1.5"/><path d="M592.709,2609.63c54.066,25.993,100.172,10.526,160.477,9.486s62.138,35.684,151.962,14.15" transform="translate(-106 44)" fill="none" stroke="#deecf8" stroke-linecap="round" stroke-width="1.5"/></g><g transform="translate(44 2393.368)"><path d="M116.709,513.6c-5.679,8.519-10.867,40.169,33.062,54.227s28.3-28.82,65.015,33.886,65.4-3.365,65.4-3.365,23.183-3.07,31.505-15.357,34.779-4.914,34.183,6.142,55.371,40.264,68.906,34.727,46.758-39.375,68.291-25.513,43.066,22.437,62.754,17.515,39.99-21.9,57.216-23.994,52.295,20.3,76.9,23.994,41.721-31.39,55.986-39.99,30.156,20.3,57.842,39.99S871.435,549.2,860.014,513.6s-58.939-23.587-75.583-29.117-37.373.217-57.586-6.541-26.917-6.144-62.583,0-143.667-17.116-328.448,0c0,0-73.063-33.732-106.945-9.774s-49.692,17.747-66.255,23.663" transform="translate(865.906 1136.169) rotate(180)" fill="#deecf8" opacity="0.51"/><path d="M1007.289,544.245l-188.14-1.3s22.078-22.081,27.46-3.34c0,0,23.378-15.773,47.683-13.73s12.062,13.172,9.093,13.73c0,0,61.784-33.769,68.463.742C971.848,540.35,1012.484,519.011,1007.289,544.245Z" transform="translate(-719.372 92.944)" fill="#deecf8"/><path d="M1104.373,546.174l-120.231,2.672s45.023-41.757,54.424-12.566c0,0,30.675-23.69,34.636-.466C1073.2,535.814,1152.86,498.183,1104.373,546.174Z" transform="translate(-394.555 86.971)" fill="#deecf8"/><g transform="translate(0 162.582)"><g transform="translate(498.531 322.317)"><path d="M953.47,556.226a76.164,76.164,0,1,0,76.167-76.164A76.162,76.162,0,0,0,953.47,556.226Z" transform="translate(-953.47 -480.062)" fill="#546e7a"/></g><g transform="translate(527.193 350.973)"><ellipse cx="47.506" cy="47.506" rx="47.506" ry="47.506" fill="#b3c3c4"/></g><g transform="translate(547.304 371.083)"><path d="M969.9,523.887a27.395,27.395,0,1,0,27.395-27.4A27.4,27.4,0,0,0,969.9,523.887Z" transform="translate(-969.899 -496.489)" fill="#f8fbfe"/></g><g transform="translate(25.201 322.317)"><path d="M794.028,556.226A76.164,76.164,0,1,0,870.2,480.062,76.164,76.164,0,0,0,794.028,556.226Z" transform="translate(-794.028 -480.062)" fill="#546e7a"/></g><g transform="translate(53.863 350.973)"><ellipse cx="47.506" cy="47.506" rx="47.506" ry="47.506" fill="#b3c3c4"/></g><g transform="translate(73.973 371.083)"><path d="M810.457,523.887a27.4,27.4,0,1,0,27.4-27.4A27.4,27.4,0,0,0,810.457,523.887Z" transform="translate(-810.457 -496.489)" fill="#f8fbfe"/></g><g transform="translate(95.359 38.574)"><path d="M841.226,629.87l29.906,23.4v17.343c0,25.349,20.484,60.789,45.833,60.789h513.577L1412.6,675.033a195.224,195.224,0,0,0-179.147-117.61H1118.536a9.942,9.942,0,0,0-7.027,16.969l21.906,21.909a59.041,59.041,0,0,1,0,83.737l-.6.6a59.088,59.088,0,0,1-41.867,17.423H1034.2a105.355,105.355,0,0,1-101.466-77.387l-9.043-33.121C909.714,536.859,945.13,414.87,945.13,414.87l-18.222-30.387L826.644,549.268A61.763,61.763,0,0,0,841.226,629.87Z" transform="translate(-817.661 -384.483)" fill="#1a8ae0"/></g><g transform="translate(460.895 256.774)"><path d="M1188.165,586.726H940.792v-1.532c0-62,50.257-127.21,112.26-127.21h1.758a112.256,112.256,0,0,1,95.181,52.741Z" transform="translate(-940.792 -457.984)" fill="#0468b5"/></g><g transform="translate(0 294.207)"><path d="M963.068,561.9h63.414l-18.566-34.541c-23.883-44.444-74.062-63.117-123.841-54.87-50.444,8.357-90.176,27.92-98.536,53.469H899.123c22.886,0,45.18,22.229,63.657,35.734Z" transform="translate(-785.539 -470.593)" fill="#0468b5"/></g><g transform="translate(379.26 199.739)"><rect width="230.944" height="11.958" rx="5.979" fill="#034170"/></g><path d="M102.045,37.411V9.732l19.566-7.641c16.227-6.339,35.63,2.5,35.63,16.23v.8c0,10.1-10.912,18.3-24.378,18.3Zm-74.371,0C12.391,37.411,0,32.576,0,26.611v-.228c0-6.277,13.679-11.231,29.719-10.768l72.326-5.884v27.68Z" transform="translate(351.725 162.329)" fill="#546e7a" stroke="rgba(0,0,0,0)" stroke-miterlimit="10" stroke-width="1"/><g transform="translate(162.061 19.245)"><rect width="60.766" height="49.718" fill="#0468b5"/></g><g transform="translate(144.387 24.77)"><path d="M851.13,379.833h.719V414.08h-.719a16.955,16.955,0,0,1-16.954-16.948v-.347A16.956,16.956,0,0,1,851.13,379.833Z" transform="translate(-834.176 -379.833)" fill="#ffc500"/></g><g transform="translate(198.521)"><path d="M852.411,396.259s3.313-40,34.246-18.34,84.414,57.916,84.414,57.916,22.621,23.2-7.6,17.673-63.55-48.41-70.179-43.438S864.562,422.772,852.411,396.259Z" transform="translate(-852.411 -371.489)" fill="#034170"/></g><g transform="translate(516.906 68.962)"><rect width="130.781" height="130.777" fill="#ff3900"/></g><g transform="translate(585.84 139.033)"><g transform="translate(3.16 2)"><g transform="translate(25.203)"><path d="M-2641.96-2630.285v-26.3h-4.083l7.513-9.4,7.513,9.4h-3.443v26.3a3.749,3.749,0,0,1-3.75,3.75A3.75,3.75,0,0,1-2641.96-2630.285Z" transform="translate(2646.043 2665.983)" fill="#efefef" stroke="rgba(0,0,0,0)" stroke-miterlimit="10" stroke-width="1"/></g><g transform="translate(1)"><path d="M-2616.122-2630.285v-26.3h-3.718l7.513-9.4,7.513,9.4h-3.809v26.3a3.75,3.75,0,0,1-3.75,3.75A3.75,3.75,0,0,1-2616.122-2630.285Z" transform="translate(2619.84 2665.983)" fill="#efefef" stroke="rgba(0,0,0,0)" stroke-miterlimit="10" stroke-width="1"/></g></g><rect width="41.229" height="3.469" rx="1.735" transform="translate(3.16 44.914)" fill="#efefef"/></g><g transform="translate(229.802 316.035)"><path d="M862.948,492.976v.6a29.261,29.261,0,0,0,29.31,29.307h139.3a29.246,29.246,0,0,0,29.233-29.307v-.6a29.463,29.463,0,0,0-4.111-15.03,59.563,59.563,0,0,1-12.415,18.094s-24.04,19.641-49.918,18.023H945.047a105.009,105.009,0,0,1-78.507-35.217A30.008,30.008,0,0,0,862.948,492.976Z" transform="translate(-862.948 -477.946)" fill="#546e7a"/></g></g><rect width="39.447" height="32.782" transform="translate(324.624 443.153)" fill="#f8cede"/><path d="M985.5,476.939l-.817,43.2-100.142-1.547c-2.5-1.081-10.99-4.521-10.925-6.261.223-5.92,6.291-13.775,21.912-15.77,22.96-2.936,28.211-1.363,33.5-8.128,3.025-3.868,3.854-9.146,4.038-12.664a3.919,3.919,0,0,1,4.008-3.687l44.557.84A3.941,3.941,0,0,1,985.5,476.939Z" transform="translate(-612.145 -10.874)" fill="#000114"/><g transform="translate(233.26 278.884)"><path d="M864.113,487.36" transform="translate(-864.113 -259.68)" fill="#4a5177"/><path d="M901.922,487.773" transform="translate(-789.68 -258.867)" fill="#4a5177"/><path d="M37.256,174.5V149.867h6.007L4.444,52.426A35.284,35.284,0,0,1,35.271,0H202.2s24.771,70.546-42.844,70.546H71.523l5.446,79.321h5.994v25.021Z" transform="translate(52.519)" fill="#bd2a00" stroke="rgba(0,0,0,0)" stroke-miterlimit="10" stroke-width="1"/><path d="M897.5,434.916" transform="translate(-798.393 -362.925)" fill="none" stroke="#01021f" stroke-miterlimit="10" stroke-width="1.075"/><path d="M905.066,434.916" transform="translate(-783.49 -362.925)" fill="none" stroke="#01021f" stroke-miterlimit="10" stroke-width="1.075"/></g><rect width="39.447" height="32.782" transform="translate(340.018 444.115)" fill="#ffd4e5"/><g transform="translate(247.501 17.17)"><g transform="translate(157.158)"><path d="M931.454,342.592l22.964,60.23,40.5-9.815-28.477-55.929Z" transform="translate(-902.941 -293.82)" fill="#ffd4e5"/><path d="M954.51,336.426s2.324,28.042-12.679,50.1l-7.389-19.671Z" transform="translate(-897.057 -295.105)" fill="#f8cede"/><path d="M927.8,336.944l-3.981,40.121a18.031,18.031,0,0,0,16.161,19.724h0c14.241,1.41,27.686-7.1,33.187-20.306l12.937-30.5a11.108,11.108,0,0,0-9.158-15.324l-31.97-6.7C938.869,323.35,928.4,330.837,927.8,336.944Z" transform="translate(-918.148 -319.723)" fill="#ffd4e5"/><path d="M930.348,334.35l-8.217,9.99c-.991,1.686.769,3.672,3.144,3.548l12.091,2.247Z" transform="translate(-921.849 -299.192)" fill="#ffd4e5"/><path d="M950.892,359.1l7.787-21.823-12.8-8.585s-12.047,4.391-7.932,14.092c3.45,8.131,12.213,13.356,7.475,16.013" transform="translate(-891.846 -310.331)" fill="#01021f"/><path d="M973.629,326.268c2.734.472,24.845-.285,25.044,24.337.125,15.66-12.952,33.136-13.065,32.982,0,0-8.081-.5-10.328-12.005-.576-2.942-.113-5.011.888-6.478L958.973,342.94s4.818-3.6-2.672-8c-13.365-7.858-28.683-4.759-28.683-4.759C931.857,315.94,970.892,325.793,973.629,326.268Z" transform="translate(-910.492 -322.507)" fill="#01021f"/><g transform="translate(59.234 36.56)"><path d="M959.02,342.312c.546,7.938-7.645,12.175-13.543,8.137a8.454,8.454,0,0,1-3.53-8.526c1.318-7.027,10.105-9.82,15.33-3.818A7.211,7.211,0,0,1,959.02,342.312Z" transform="translate(-941.802 -334.822)" fill="#e05a5e"/></g><g transform="translate(9.328 53.739)"><path d="M924.991,341.244" transform="translate(-924.991 -339.359)" fill="none" stroke="#fff" stroke-linecap="round" stroke-linejoin="round" stroke-width="0.771"/><path d="M928.825,340.609" transform="translate(-917.443 -340.609)" fill="none" stroke="#fff" stroke-linecap="round" stroke-linejoin="round" stroke-width="0.771"/></g></g><g transform="translate(10.026 90.892)"><path d="M992.962,353.878s20.425-5.86,32.691,15.1c14.505,24.788,11.02,64.168-.852,96.007l-5.076,59.189H922.13s-4.391-65.251,14.422-106.988C961.361,362.143,992.962,353.878,992.962,353.878Z" transform="translate(-775.038 -353.124)" fill="#ffc500"/><path d="M896.823,459.01s18.849,6.134,34.407,2.244,23.187-17.2,34.906-34.157,27.774-48.868,27.774-48.868l-41,14.357-4.62,17.488-4.3.581L896.823,451.8Z" transform="translate(-750.178 -305.765)" fill="#ae8600" opacity="0.25"/><path d="M59.817,42.244c-10.63,3.853-18.683-.076-18.683-.076L24.622,36.355l-3.809,3.66a7.312,7.312,0,0,1-9.129.8L6.436,37.305a10.539,10.539,0,0,1-3.827-4.619L.842,28.542A10.523,10.523,0,0,1,2.687,17.394L13.976,3.121A9.379,9.379,0,0,1,24.918.877l37.505,17.44,97.926-4.825c14.259-2.236,23.945,2.173,28.636,15.826C195.065,47,178.117,55.216,159.6,57.834Z" transform="translate(5.554 82.311)" fill="#f8cede" stroke="rgba(0,0,0,0)" stroke-miterlimit="10" stroke-width="1"/><path d="M163.373,69.645a27.6,27.6,0,0,1-8.851-1.824L58.823,48.1c-10.135,3.269-17.688-.417-17.688-.417l-16.512-5.81-3.809,3.657a7.306,7.306,0,0,1-9.129.8L6.435,42.823A10.546,10.546,0,0,1,2.609,38.2L.842,34.059A10.525,10.525,0,0,1,2.686,22.912L13.976,8.638A9.392,9.392,0,0,1,24.922,6.394L62.43,23.836l83.693-4.126L159.58,0l45.439,34.08L186.661,58.574a27.665,27.665,0,0,1-23.076,11.079l-.1.015Z" transform="translate(0 82.571)" fill="#ffd4e5" stroke="rgba(0,0,0,0)" stroke-miterlimit="10" stroke-width="1"/><path d="M926.15,417.92,953.693,376.6a32.447,32.447,0,0,1,48.68-6.142h0a32.449,32.449,0,0,1,4.919,42.722l-30.07,43.04Z" transform="translate(-766.249 -335.349)" fill="#ffc500"/></g><g transform="translate(0 261.714)"><path d="M868.91,487.36" transform="translate(-868.91 -259.68)" fill="#ff3900" stroke="#fff" stroke-miterlimit="10" stroke-width="0.608"/><path d="M906.719,487.773" transform="translate(-794.477 -258.867)" fill="#ff3900" stroke="#fff" stroke-miterlimit="10" stroke-width="0.608"/><path d="M37.256,174.5V149.865h6.008L4.449,52.433A35.283,35.283,0,0,1,35.27,0H202.2s24.77,70.545-42.844,70.545H71.524l5.445,79.32h5.993v25.023Z" transform="translate(52.516 0)" fill="#ff3900" stroke="rgba(0,0,0,0)" stroke-miterlimit="10" stroke-width="1"/><path d="M902.292,434.916" transform="translate(-803.192 -362.925)" fill="#ff3900" stroke="#01021f" stroke-miterlimit="10" stroke-width="1.075"/><path d="M909.863,434.916" transform="translate(-788.287 -362.925)" fill="#ff3900" stroke="#01021f" stroke-miterlimit="10" stroke-width="1.075"/></g></g><path d="M989.934,476.939l-.816,43.2L876.89,518.058s.113-18.563,23.073-21.5,28.211-1.363,33.5-8.128c3.007-3.844,3.842-9.078,4.035-12.6a3.948,3.948,0,0,1,4.01-3.755l44.56.84A3.94,3.94,0,0,1,989.934,476.939Z" transform="translate(-605.699 -9.717)" fill="#01021f"/><rect width="113.184" height="6.769" transform="matrix(1, 0.017, -0.017, 1, 270.465, 507.463)" fill="#000114"/><g transform="translate(308.287 473.498)"><path d="M901.777,477.956a1.7,1.7,0,1,1-1.672-1.734A1.7,1.7,0,0,1,901.777,477.956Z" transform="translate(-871.701 -476.222)" fill="#d9d8d9"/><path d="M899.97,480.466a1.7,1.7,0,1,1-1.672-1.737A1.7,1.7,0,0,1,899.97,480.466Z" transform="translate(-875.259 -471.286)" fill="#d9d8d9"/><path d="M896.648,481.967a1.7,1.7,0,1,1-1.671-1.734A1.7,1.7,0,0,1,896.648,481.967Z" transform="translate(-881.799 -468.326)" fill="#d9d8d9"/><path d="M892.791,482.468a1.7,1.7,0,1,1-1.672-1.734A1.7,1.7,0,0,1,892.791,482.468Z" transform="translate(-889.386 -467.339)" fill="#d9d8d9"/></g><g transform="translate(527.353 486.987)"><rect width="68.626" height="5.952" rx="0.773" transform="translate(24.173)" fill="#f2f8fd"/><rect width="90.274" height="5.952" rx="0.773" transform="translate(13.349 14.347)" fill="#f2f8fd"/><rect width="116.973" height="5.952" rx="0.773" transform="translate(0 27.85)" fill="#f2f8fd"/></g><g transform="translate(398.8 0)"><path d="M929.22,351.245c3.322-8.119,15.871-33.436,45.489-34.5,19.368-.7,44.607,17.254,48.924,26,1.25,2.479-4.566-.784-4.355.914.077.635,7.4,25.762-2.505,43.684-2.583,1.668-7.428,3.081-10.723,3.913a17.171,17.171,0,0,1-6.635.336l-.971-.139a12.067,12.067,0,0,0-5.961.73c-12.382,4.652-42.939,14.846-49.568,18.5-3,1.654-7.131,3.551-8.033,3.928-4.8,2.013-5.688,1.128-6.374.481-3.242-3.438-11.881-22.259-7.342-25,11.8-.891,17.925-1.351,37.221-9.069,2.734-6.472,5.584-17.423,3.907-20.4S929.22,351.245,929.22,351.245Z" transform="translate(-919.875 -316.723)" fill="#1a8ae0"/><path d="M958.162,358.118c-19.276,7.716-25.391,8.176-37.2,9.066a2.311,2.311,0,0,0-.977,1.259l-.006-.056c.318-2.9,5.068-30.818,9.028-40.03,0,0,31.4,6.377,33.059,9.354C963.761,340.689,960.92,351.649,958.162,358.118Z" transform="translate(-919.665 -293.821)" fill="#ffc500" opacity="0.2"/><path d="M1010.872,340.51s-1.119,5.6-2.728,6.887a16.067,16.067,0,0,1-10.473,2.716c-2.992-.246-5.78-.98-9.693.1s-35.069,12.6-40.015,14.5-14.511,7.454-17.138,8.048c-1.912.434-7.953-4.085-7.953-4.085l60.766-25.234Z" transform="translate(-913.976 -269.895)" fill="#ffc500"/></g></g><g transform="translate(-219.44 1523.6)"><g transform="translate(35.039 -5.17)"><path d="M1211.835,1331.515a12.39,12.39,0,1,0-.005-.014Z" transform="translate(0 0)" fill="#ff7e58"/><path d="M1215.228,1323.029l4.765,4.714,6.514-8.611" transform="translate(3.02 3.093)" fill="none" stroke="#fff" stroke-linecap="round" stroke-linejoin="round" stroke-width="1.5"/></g><g transform="translate(-164 -137)"><path d="M524.5,767.113a13.167,13.167,0,1,0,17.289-6.917h0a13.164,13.164,0,0,0-17.286,6.912Z" fill="#ff7e58"/><path d="M530.483,770.92l5.032,5.18,7.2-9.136" fill="#ff7e58" stroke="#fff" stroke-linecap="round" stroke-linejoin="round" stroke-miterlimit="10" stroke-width="1.5"/></g><g transform="translate(-214.332 1072)"><path d="M1212.5,554.113a13.167,13.167,0,1,0,17.289-6.917h0a13.164,13.164,0,0,0-17.286,6.912Z" fill="#ff7e58"/><path d="M1218.483,557.92l5.032,5.18,7.2-9.136" fill="#ff7e58" stroke="#fff" stroke-linecap="round" stroke-linejoin="round" stroke-miterlimit="10" stroke-width="1.5"/></g><path d="M1184.984,904.3a4.842,4.842,0,1,0,0-.005Z" transform="translate(-946 706)" fill="#ff7e58"/><path d="M604.34,542.741a4.842,4.842,0,1,0,4.844-4.841A4.843,4.843,0,0,0,604.34,542.741Z" transform="translate(-356 548)" fill="#ff7e58"/><g transform="translate(94 69)"><path d="M767.627,871.21a1.546,1.546,0,0,0,1.544-1.544V858.774a1.544,1.544,0,0,0-3.088,0v10.892a1.544,1.544,0,0,0,1.544,1.544Z" fill="#ff7e58"/><path d="M762.177,865.763h10.9a1.544,1.544,0,0,0,0-3.088h-10.9a1.544,1.544,0,1,0,0,3.088Z" fill="#ff7e58"/></g><g transform="matrix(0.839, 0.545, -0.545, 0.839, 309.944, -117.706)"><g transform="translate(764.984 857.23)"><path d="M767.316,868.393a1.235,1.235,0,0,0,1.233-1.233v-8.7a1.233,1.233,0,1,0-2.466,0v8.7a1.233,1.233,0,0,0,1.233,1.233Z" transform="translate(-766.083 -857.23)" fill="#ff7e58"/></g><g transform="translate(760.631 861.578)"><path d="M761.865,865.141h8.7a1.233,1.233,0,1,0,0-2.466h-8.706a1.233,1.233,0,1,0,0,2.466Z" transform="translate(-760.631 -862.675)" fill="#ff7e58"/></g></g><g transform="translate(-58 558)"><path d="M508.5,1001.1a1.546,1.546,0,0,0,1.721,1.344l10.819-1.328a1.546,1.546,0,0,0-.377-3.068l-10.819,1.328A1.547,1.547,0,0,0,508.5,1001.1Z" fill="#ff7e58"/><path d="M513.239,995.024l1.328,10.818a1.544,1.544,0,1,0,3.065-.376L516.3,994.647a1.544,1.544,0,0,0-3.065.377Z" fill="#ff7e58"/></g><path d="M295.184,159.556a7.891,7.891,0,1,0,7.893-7.889A7.894,7.894,0,0,0,295.184,159.556Z" transform="translate(220.944 643.807)" fill="#ff7e58"/><path d="M295.184,155.207a3.541,3.541,0,1,0,3.542-3.54A3.542,3.542,0,0,0,295.184,155.207Z" transform="translate(521.294 592.158)" fill="#ff7e58"/></g></g></svg>