<svg xmlns="http://www.w3.org/2000/svg" width="48" height="48" viewBox="0 0 48 48">
  <g id="telegram_icon" transform="translate(-669 -3406)">
    <rect id="Rectangle_314" data-name="Rectangle 314" width="48" height="48" rx="8" transform="translate(669 3406)" fill="#b3c3c4"/>
    <path id="telegram-1" d="M24.895,29.784a1.61,1.61,0,0,0,1.5.2,1.571,1.571,0,0,0,.98-1.137c1.177-5.53,4.031-19.528,5.1-24.559a1.057,1.057,0,0,0-.352-1.026,1.084,1.084,0,0,0-1.079-.19C25.367,5.169,7.881,11.73.734,14.375A1.114,1.114,0,0,0,.8,16.491c3.205.959,7.413,2.293,7.413,2.293s1.966,5.938,2.991,8.958a1.186,1.186,0,0,0,.817.78,1.173,1.173,0,0,0,1.1-.28l4.192-3.958s4.837,3.546,7.58,5.5ZM9.986,18.034l2.274,7.5.505-4.749L26.556,8.345a.376.376,0,0,0,.045-.511.385.385,0,0,0-.509-.087L9.986,18.034Z" transform="translate(677.216 3413.847)" fill="#fff" fill-rule="evenodd"/>
  </g>
</svg>
