<svg xmlns="http://www.w3.org/2000/svg" width="48" height="48" viewBox="0 0 48 48"><g transform="translate(-501 -3406)"><rect width="48" height="48" rx="8" transform="translate(501 3406)" fill="#b3c3c4"/><path d="M33.735,5.494A13.818,13.818,0,0,1,29.76,6.583,6.932,6.932,0,0,0,32.8,2.754a13.865,13.865,0,0,1-4.4,1.68,6.926,6.926,0,0,0-11.795,6.311A19.648,19.648,0,0,1,2.349,3.514,6.93,6.93,0,0,0,4.49,12.755a6.892,6.892,0,0,1-3.133-.866,6.926,6.926,0,0,0,5.551,6.874,6.937,6.937,0,0,1-3.126.118,6.926,6.926,0,0,0,6.466,4.806A13.916,13.916,0,0,1,0,26.554a19.593,19.593,0,0,0,10.61,3.109c12.85,0,20.11-10.853,19.672-20.587a14.091,14.091,0,0,0,3.454-3.583Z" transform="translate(508.132 3414.796)" fill="#fff"/></g></svg>